<svg width="25" height="22" viewBox="0 0 25 22" fill="none" xmlns="http://www.w3.org/2000/svg">
<path d="M18.2832 21.4755H6.67482C2.43776 21.4755 0 19.0377 0 14.8007V6.67482C0 2.43776 2.43776 0 6.67482 0H18.2832C22.5202 0 24.958 2.43776 24.958 6.67482V14.8007C24.958 19.0377 22.5202 21.4755 18.2832 21.4755ZM6.67482 1.74126C3.35482 1.74126 1.74126 3.35482 1.74126 6.67482V14.8007C1.74126 18.1207 3.35482 19.7342 6.67482 19.7342H18.2832C21.6032 19.7342 23.2168 18.1207 23.2168 14.8007V6.67482C23.2168 3.35482 21.6032 1.74126 18.2832 1.74126H6.67482Z" fill="#121212"/>
<path d="M12.4787 11.7475C11.5036 11.7475 10.5169 11.4457 9.76238 10.8305L6.12896 7.92837C5.75749 7.62655 5.68784 7.08095 5.98966 6.70949C6.29148 6.33802 6.83708 6.26837 7.20855 6.57019L10.842 9.47229C11.7242 10.1804 13.2217 10.1804 14.1039 9.47229L17.7373 6.57019C18.1088 6.26837 18.666 6.32641 18.9562 6.70949C19.258 7.08095 19.2 7.63816 18.8169 7.92837L15.1835 10.8305C14.4406 11.4457 13.4538 11.7475 12.4787 11.7475Z" fill="#121212"/>
</svg>
