<svg width="24" height="24" viewBox="0 0 24 24" fill="none" xmlns="http://www.w3.org/2000/svg">
<path d="M6.7005 17.9999H4.15051C2.72051 17.9999 2.00049 17.2799 2.00049 15.8499V4.14996C2.00049 2.71996 2.72051 1.99994 4.15051 1.99994H8.4505C9.8805 1.99994 10.6005 2.71996 10.6005 4.14996V5.99994" stroke="#797979" stroke-width="1.5" stroke-miterlimit="10" stroke-linecap="round" stroke-linejoin="round"/>
<path d="M17.3707 8.41992V19.58C17.3707 21.19 16.5707 21.9999 14.9607 21.9999H9.12067C7.51067 21.9999 6.70068 21.19 6.70068 19.58V8.41992C6.70068 6.80992 7.51067 5.99994 9.12067 5.99994H14.9607C16.5707 5.99994 17.3707 6.80992 17.3707 8.41992Z" stroke="#797979" stroke-width="1.5" stroke-miterlimit="10" stroke-linecap="round" stroke-linejoin="round"/>
<path d="M13.4004 5.99994V4.14996C13.4004 2.71996 14.1204 1.99994 15.5504 1.99994H19.8503C21.2803 1.99994 22.0004 2.71996 22.0004 4.14996V15.8499C22.0004 17.2799 21.2803 17.9999 19.8503 17.9999H17.3704" stroke="#797979" stroke-width="1.5" stroke-miterlimit="10" stroke-linecap="round" stroke-linejoin="round"/>
<path d="M10.0005 10.9999H14.0005" stroke="#797979" stroke-width="1.5" stroke-miterlimit="10" stroke-linecap="round" stroke-linejoin="round"/>
<path d="M10.0005 13.9999H14.0005" stroke="#797979" stroke-width="1.5" stroke-miterlimit="10" stroke-linecap="round" stroke-linejoin="round"/>
<path d="M12.0005 21.9999V18.9999" stroke="#797979" stroke-width="1.5" stroke-miterlimit="10" stroke-linecap="round" stroke-linejoin="round"/>
</svg>
