<svg width="24" height="24" viewBox="0 0 24 24" fill="none" xmlns="http://www.w3.org/2000/svg">
<path d="M12.9995 21.9999H4.99951C2.99951 21.9999 1.99951 20.9999 1.99951 18.9999V10.9999C1.99951 8.99994 2.99951 7.99994 4.99951 7.99994H9.99951V18.9999C9.99951 20.9999 10.9995 21.9999 12.9995 21.9999Z" stroke="#3D6CF0" stroke-width="1.5" stroke-miterlimit="10" stroke-linecap="round" stroke-linejoin="round"/>
<path d="M10.1095 3.99994C10.0295 4.29994 9.99951 4.62994 9.99951 4.99994V7.99994H4.99951V5.99994C4.99951 4.89994 5.89951 3.99994 6.99951 3.99994H10.1095Z" stroke="#3D6CF0" stroke-width="1.5" stroke-miterlimit="10" stroke-linecap="round" stroke-linejoin="round"/>
<path d="M13.9995 7.99994V12.9999" stroke="#3D6CF0" stroke-width="1.5" stroke-miterlimit="10" stroke-linecap="round" stroke-linejoin="round"/>
<path d="M17.9995 7.99994V12.9999" stroke="#3D6CF0" stroke-width="1.5" stroke-miterlimit="10" stroke-linecap="round" stroke-linejoin="round"/>
<path d="M16.9995 16.9999H14.9995C14.4495 16.9999 13.9995 17.4499 13.9995 17.9999V21.9999H17.9995V17.9999C17.9995 17.4499 17.5495 16.9999 16.9995 16.9999Z" stroke="#3D6CF0" stroke-width="1.5" stroke-miterlimit="10" stroke-linecap="round" stroke-linejoin="round"/>
<path d="M5.99951 12.9999V16.9999" stroke="#3D6CF0" stroke-width="1.5" stroke-miterlimit="10" stroke-linecap="round" stroke-linejoin="round"/>
<path d="M9.99951 18.9999V4.99994C9.99951 2.99994 10.9995 1.99994 12.9995 1.99994H18.9995C20.9995 1.99994 21.9995 2.99994 21.9995 4.99994V18.9999C21.9995 20.9999 20.9995 21.9999 18.9995 21.9999H12.9995C10.9995 21.9999 9.99951 20.9999 9.99951 18.9999Z" stroke="#3D6CF0" stroke-width="1.5" stroke-miterlimit="10" stroke-linecap="round" stroke-linejoin="round"/>
</svg>
