<svg width="13" height="12" viewBox="0 0 13 12" fill="none" xmlns="http://www.w3.org/2000/svg">
<path d="M11.9536 4.26V1.99C11.9536 1.285 11.6336 1 10.8386 1H8.81861C8.02361 1 7.70361 1.285 7.70361 1.99V4.255C7.70361 4.965 8.02361 5.245 8.81861 5.245H10.8386C11.6336 5.25 11.9536 4.965 11.9536 4.26Z" stroke="#797979" stroke-linecap="round" stroke-linejoin="round"/>
<path d="M11.9536 9.885V7.865C11.9536 7.07 11.6336 6.75 10.8386 6.75H8.81861C8.02361 6.75 7.70361 7.07 7.70361 7.865V9.885C7.70361 10.68 8.02361 11 8.81861 11H10.8386C11.6336 11 11.9536 10.68 11.9536 9.885Z" stroke="#797979" stroke-linecap="round" stroke-linejoin="round"/>
<path d="M6.20361 4.26V1.99C6.20361 1.285 5.88361 1 5.08861 1H3.06861C2.27361 1 1.95361 1.285 1.95361 1.99V4.255C1.95361 4.965 2.27361 5.245 3.06861 5.245H5.08861C5.88361 5.25 6.20361 4.965 6.20361 4.26Z" stroke="#797979" stroke-linecap="round" stroke-linejoin="round"/>
<path d="M6.20361 9.885V7.865C6.20361 7.07 5.88361 6.75 5.08861 6.75H3.06861C2.27361 6.75 1.95361 7.07 1.95361 7.865V9.885C1.95361 10.68 2.27361 11 3.06861 11H5.08861C5.88361 11 6.20361 10.68 6.20361 9.885Z" stroke="#797979" stroke-linecap="round" stroke-linejoin="round"/>
</svg>
