<svg width="27" height="27" viewBox="0 0 27 27" fill="none" xmlns="http://www.w3.org/2000/svg">
<path d="M9.75586 16.1211C9.75586 17.5723 10.8696 18.7423 12.2534 18.7423H15.0771C16.2809 18.7423 17.2596 17.7186 17.2596 16.4586C17.2596 15.0861 16.6634 14.6023 15.7746 14.2873L11.2409 12.7123C10.3521 12.3973 9.75586 11.9136 9.75586 10.5411C9.75586 9.28107 10.7346 8.25732 11.9384 8.25732H14.7621C16.1459 8.25732 17.2596 9.42732 17.2596 10.8786" stroke="#292D32" stroke-width="1.5" stroke-linecap="round" stroke-linejoin="round"/>
<path d="M13.5 6.75V20.25" stroke="#292D32" stroke-width="1.5" stroke-linecap="round" stroke-linejoin="round"/>
<path d="M16.875 24.75H10.125C4.5 24.75 2.25 22.5 2.25 16.875V10.125C2.25 4.5 4.5 2.25 10.125 2.25H16.875C22.5 2.25 24.75 4.5 24.75 10.125V16.875C24.75 22.5 22.5 24.75 16.875 24.75Z" stroke="#292D32" stroke-width="1.5" stroke-linecap="round" stroke-linejoin="round"/>
</svg>
