<svg width="25" height="24" viewBox="0 0 25 24" fill="none" xmlns="http://www.w3.org/2000/svg">
<path d="M12.333 15C13.9899 15 15.333 13.6569 15.333 12C15.333 10.3431 13.9899 9 12.333 9C10.6762 9 9.33301 10.3431 9.33301 12C9.33301 13.6569 10.6762 15 12.333 15Z" stroke="#121212" stroke-width="1.5" stroke-miterlimit="10" stroke-linecap="round" stroke-linejoin="round"/>
<path d="M2.33301 12.88V11.12C2.33301 10.08 3.18301 9.22 4.23301 9.22C6.04301 9.22 6.78301 7.94 5.87301 6.37C5.35301 5.47 5.66301 4.3 6.57301 3.78L8.30301 2.79C9.09301 2.32 10.113 2.6 10.583 3.39L10.693 3.58C11.593 5.15 13.073 5.15 13.983 3.58L14.093 3.39C14.563 2.6 15.583 2.32 16.373 2.79L18.103 3.78C19.013 4.3 19.323 5.47 18.803 6.37C17.893 7.94 18.633 9.22 20.443 9.22C21.483 9.22 22.343 10.07 22.343 11.12V12.88C22.343 13.92 21.493 14.78 20.443 14.78C18.633 14.78 17.893 16.06 18.803 17.63C19.323 18.54 19.013 19.7 18.103 20.22L16.373 21.21C15.583 21.68 14.563 21.4 14.093 20.61L13.983 20.42C13.083 18.85 11.603 18.85 10.693 20.42L10.583 20.61C10.113 21.4 9.09301 21.68 8.30301 21.21L6.57301 20.22C5.66301 19.7 5.35301 18.53 5.87301 17.63C6.78301 16.06 6.04301 14.78 4.23301 14.78C3.18301 14.78 2.33301 13.92 2.33301 12.88Z" stroke="#121212" stroke-width="1.5" stroke-miterlimit="10" stroke-linecap="round" stroke-linejoin="round"/>
</svg>
