<svg width="20" height="20" viewBox="0 0 20 20" fill="none" xmlns="http://www.w3.org/2000/svg">
<path d="M15.1667 17.7084H6.83335C3.79169 17.7084 2.04169 15.9584 2.04169 12.9167V7.08335C2.04169 4.04169 3.79169 2.29169 6.83335 2.29169H15.1667C18.2084 2.29169 19.9584 4.04169 19.9584 7.08335V12.9167C19.9584 15.9584 18.2084 17.7084 15.1667 17.7084ZM6.83335 3.54169C4.45002 3.54169 3.29169 4.70002 3.29169 7.08335V12.9167C3.29169 15.3 4.45002 16.4584 6.83335 16.4584H15.1667C17.55 16.4584 18.7084 15.3 18.7084 12.9167V7.08335C18.7084 4.70002 17.55 3.54169 15.1667 3.54169H6.83335Z" fill="#848484"/>
<path d="M10.9998 10.725C10.2998 10.725 9.59146 10.5083 9.0498 10.0666L6.44146 7.98331C6.17479 7.76664 6.1248 7.37497 6.34146 7.10831C6.55813 6.84164 6.9498 6.79164 7.21647 7.00831L9.82479 9.09165C10.4581 9.59998 11.5331 9.59998 12.1665 9.09165L14.7748 7.00831C15.0415 6.79164 15.4415 6.83331 15.6498 7.10831C15.8665 7.37497 15.8248 7.77498 15.5498 7.98331L12.9415 10.0666C12.4081 10.5083 11.6998 10.725 10.9998 10.725Z" fill="#848484"/>
</svg>
