<svg width="22" height="22" viewBox="0 0 22 22" fill="none" xmlns="http://www.w3.org/2000/svg">
<path d="M14 21H8C3 21 1 19 1 14V8C1 3 3 1 8 1H14C19 1 21 3 21 8V14C21 19 19 21 14 21Z" stroke="#121212" stroke-width="1.5" stroke-linecap="round" stroke-linejoin="round"/>
<path d="M12 8.3V11.2H14.6C14.8 11.2 14.9 11.4 14.9 11.6L14.5 13.5C14.5 13.6 14.3 13.7 14.2 13.7H12V21H9V13.8H7.3C7.1 13.8 7 13.7 7 13.5V11.6C7 11.4 7.1 11.3 7.3 11.3H9V8C9 6.3 10.3 5 12 5H14.7C14.9 5 15 5.1 15 5.3V7.7C15 7.9 14.9 8 14.7 8H12.3C12.1 8 12 8.1 12 8.3Z" fill="white" stroke="#121212" stroke-width="1.5" stroke-miterlimit="10" stroke-linecap="round"/>
</svg>
