<svg width="29" height="28" viewBox="0 0 29 28" fill="none" xmlns="http://www.w3.org/2000/svg">
<rect width="28" height="28" transform="translate(0.5)" fill="white"/>
<path d="M18.7 28H10.3C3.3 28 0.5 25.2 0.5 18.2V9.8C0.5 2.8 3.3 0 10.3 0H18.7C25.7 0 28.5 2.8 28.5 9.8V18.2C28.5 25.2 25.7 28 18.7 28Z" fill="#3D6CF0"/>
<path d="M15.9 10.22V14.28H19.54C19.82 14.28 19.96 14.56 19.96 14.84L19.4 17.5C19.4 17.64 19.12 17.78 18.98 17.78H15.9V28H11.7V17.92H9.31996C9.03996 17.92 8.89996 17.78 8.89996 17.5V14.84C8.89996 14.56 9.03996 14.42 9.31996 14.42H11.7V9.79999C11.7 7.41999 13.52 5.59999 15.9 5.59999H19.68C19.96 5.59999 20.1 5.73999 20.1 6.01999V9.37999C20.1 9.65999 19.96 9.79999 19.68 9.79999H16.32C16.04 9.79999 15.9 9.93999 15.9 10.22Z" fill="white"/>
</svg>
