<svg width="28" height="30" viewBox="0 0 28 30" fill="none" xmlns="http://www.w3.org/2000/svg">
<path d="M27.6 12.45H14.2833V17.6917H22.075C21.9333 18.9667 21.0833 20.95 19.2417 22.225C18.1083 23.075 16.4083 23.6417 14.2833 23.6417C10.6 23.6417 7.34167 21.2333 6.20834 17.6917C5.925 16.8417 5.78333 15.85 5.78333 14.8583C5.78333 13.8667 5.925 12.875 6.20834 12.025C6.35 11.7417 6.35 11.4583 6.49167 11.3167C7.76667 8.34166 10.7417 6.21666 14.2833 6.21666C16.975 6.21666 18.675 7.35 19.8083 8.34166L23.775 4.375C21.3667 2.25 18.1083 0.833328 14.2833 0.833328C8.75834 0.833328 3.94167 3.95 1.675 8.625C0.683335 10.6083 0.116669 12.7333 0.116669 15C0.116669 17.2667 0.683335 19.3917 1.675 21.375C3.94167 26.05 8.75834 29.1667 14.2833 29.1667C18.1083 29.1667 21.3667 27.8917 23.6333 25.7667C26.325 23.3583 27.8833 19.675 27.8833 15.2833C27.8833 14.15 27.7417 13.3 27.6 12.45Z" fill="#3D6CF0"/>
</svg>
