<svg width="24" height="24" viewBox="0 0 24 24" fill="none" xmlns="http://www.w3.org/2000/svg">
<path d="M2 21.9999H22" stroke="#797979" stroke-width="1.5" stroke-miterlimit="10" stroke-linecap="round" stroke-linejoin="round"/>
<path d="M2.9502 22L3.00019 9.96993C3.00019 9.35993 3.2902 8.77998 3.7702 8.39998L10.7702 2.94997C11.4902 2.38997 12.5002 2.38997 13.2302 2.94997L20.2302 8.38997C20.7202 8.76997 21.0002 9.34993 21.0002 9.96993V22" stroke="#797979" stroke-width="1.5" stroke-miterlimit="10" stroke-linejoin="round"/>
<path d="M13 16.9999H11C10.17 16.9999 9.5 17.6699 9.5 18.4999V21.9999H14.5V18.4999C14.5 17.6699 13.83 16.9999 13 16.9999Z" stroke="#797979" stroke-width="1.5" stroke-miterlimit="10" stroke-linejoin="round"/>
<path d="M9.5 13.7499H7.5C6.95 13.7499 6.5 13.2999 6.5 12.7499V11.2499C6.5 10.6999 6.95 10.2499 7.5 10.2499H9.5C10.05 10.2499 10.5 10.6999 10.5 11.2499V12.7499C10.5 13.2999 10.05 13.7499 9.5 13.7499Z" stroke="#797979" stroke-width="1.5" stroke-miterlimit="10" stroke-linejoin="round"/>
<path d="M16.5 13.7499H14.5C13.95 13.7499 13.5 13.2999 13.5 12.7499V11.2499C13.5 10.6999 13.95 10.2499 14.5 10.2499H16.5C17.05 10.2499 17.5 10.6999 17.5 11.2499V12.7499C17.5 13.2999 17.05 13.7499 16.5 13.7499Z" stroke="#797979" stroke-width="1.5" stroke-miterlimit="10" stroke-linejoin="round"/>
<path d="M18.9998 6.99994L18.9698 3.99994H14.5698" stroke="#797979" stroke-width="1.5" stroke-miterlimit="10" stroke-linecap="round" stroke-linejoin="round"/>
</svg>
