<svg width="60" height="106" viewBox="0 0 60 106" fill="none" xmlns="http://www.w3.org/2000/svg">
<g clip-path="url(#clip0_189_2156)">
<mask id="path-1-inside-1_189_2156" fill="white">
<path d="M5.58007 47.2677L5.29633 96.7163C5.29633 97.7393 5.40983 98.6657 5.65573 99.4377C5.8638 100.152 6.16645 100.731 6.58259 101.117C6.90415 101.426 7.32029 101.677 7.79318 101.87C8.17149 102.024 8.64438 102.101 9.17401 102.101C10.2522 102.101 11.1034 101.677 11.7087 100.847C12.3329 99.9975 12.6356 98.685 12.6356 96.89V92.7404L14.0353 92.0455L14.0164 97.3146H15.8512V93.2036L17.2509 92.5087V97.3146H19.1425V91.1191L20.5422 90.4243V97.7007H14.0353C13.9786 98.5499 13.8651 99.2833 13.6759 99.9203C13.4867 100.557 13.1841 101.04 12.7869 101.406C12.3329 101.831 11.86 102.121 11.3493 102.294C10.8386 102.468 10.2144 102.564 9.47666 102.564C8.87136 102.564 8.32281 102.468 7.83101 102.294C7.30138 102.082 6.8474 101.773 6.45018 101.387C6.03404 100.962 5.69356 100.345 5.48549 99.5535C5.23959 98.7622 5.10718 97.7972 5.10718 96.697L5.40983 51.1085L5.58007 47.2677Z"/>
</mask>
<path d="M5.58007 47.2677L5.29633 96.7163C5.29633 97.7393 5.40983 98.6657 5.65573 99.4377C5.8638 100.152 6.16645 100.731 6.58259 101.117C6.90415 101.426 7.32029 101.677 7.79318 101.87C8.17149 102.024 8.64438 102.101 9.17401 102.101C10.2522 102.101 11.1034 101.677 11.7087 100.847C12.3329 99.9975 12.6356 98.685 12.6356 96.89V92.7404L14.0353 92.0455L14.0164 97.3146H15.8512V93.2036L17.2509 92.5087V97.3146H19.1425V91.1191L20.5422 90.4243V97.7007H14.0353C13.9786 98.5499 13.8651 99.2833 13.6759 99.9203C13.4867 100.557 13.1841 101.04 12.7869 101.406C12.3329 101.831 11.86 102.121 11.3493 102.294C10.8386 102.468 10.2144 102.564 9.47666 102.564C8.87136 102.564 8.32281 102.468 7.83101 102.294C7.30138 102.082 6.8474 101.773 6.45018 101.387C6.03404 100.962 5.69356 100.345 5.48549 99.5535C5.23959 98.7622 5.10718 97.7972 5.10718 96.697L5.40983 51.1085L5.58007 47.2677Z" fill="white"/>
<path d="M5.58007 47.2677L13.5799 47.3136L-2.41209 46.9134L5.58007 47.2677ZM5.29633 96.7163L-2.70354 96.6704L-2.70367 96.6934V96.7163H5.29633ZM5.65573 99.4377L13.3364 97.1999L13.3086 97.1045L13.2784 97.0098L5.65573 99.4377ZM6.58259 101.117L12.1239 95.3468L12.0739 95.2988L12.0232 95.2517L6.58259 101.117ZM7.79318 101.87L10.8163 94.4628L7.79318 101.87ZM11.7087 100.847L5.26266 96.1087L5.25388 96.1206L5.24513 96.1326L11.7087 100.847ZM12.6356 92.7404L9.07851 85.5746L4.63555 87.7801V92.7404H12.6356ZM14.0353 92.0455L22.0352 92.0742L22.0818 79.1199L10.4783 84.8798L14.0353 92.0455ZM14.0164 97.3146L6.01643 97.2859L5.98761 105.315H14.0164V97.3146ZM15.8512 97.3146V105.315H23.8512V97.3146H15.8512ZM15.8512 93.2036L12.2941 86.0379L7.85119 88.2433V93.2036H15.8512ZM17.2509 92.5087H25.2509V79.6062L13.6939 85.343L17.2509 92.5087ZM17.2509 97.3146H9.25093V105.315H17.2509V97.3146ZM19.1425 97.3146V105.315H27.1425V97.3146H19.1425ZM19.1425 91.1191L15.5854 83.9534L11.1425 86.1588V91.1191H19.1425ZM20.5422 90.4243H28.5422V77.5217L16.9852 83.2585L20.5422 90.4243ZM20.5422 97.7007V105.701H28.5422V97.7007H20.5422ZM14.0353 97.7007V89.7007H6.55202L6.0531 97.1673L14.0353 97.7007ZM12.7869 101.406L7.36027 95.5283L7.34111 95.546L7.32207 95.5638L12.7869 101.406ZM7.83101 102.294L4.85439 109.72L5.00931 109.782L5.16668 109.838L7.83101 102.294ZM6.45018 101.387L0.736583 106.987L0.80488 107.056L0.874856 107.124L6.45018 101.387ZM5.48549 99.5535L13.2225 97.5192L13.1776 97.3483L13.1251 97.1796L5.48549 99.5535ZM5.10718 96.697L-2.89265 96.6439L-2.89282 96.6705V96.697H5.10718ZM5.40983 51.1085L-2.58233 50.7543L-2.589 50.9048L-2.59 51.0554L5.40983 51.1085ZM-2.4198 47.2218L-2.70354 96.6704L13.2962 96.7622L13.5799 47.3136L-2.4198 47.2218ZM-2.70367 96.7163C-2.70367 98.2684 -2.53892 100.07 -1.96695 101.866L13.2784 97.0098C13.3253 97.1572 13.3264 97.2115 13.3174 97.1427C13.309 97.0774 13.2963 96.938 13.2963 96.7163H-2.70367ZM-2.0249 101.676C-1.59777 103.142 -0.734481 105.241 1.14201 106.982L12.0232 95.2517C12.5668 95.756 12.8897 96.2488 13.0672 96.5749C13.2435 96.8986 13.3158 97.1295 13.3364 97.1999L-2.0249 101.676ZM1.04129 106.887C2.26446 108.062 3.61332 108.804 4.7701 109.276L10.8163 94.4628C11.0273 94.5489 11.5438 94.7898 12.1239 95.3468L1.04129 106.887ZM4.7701 109.276C6.37564 109.932 7.94224 110.101 9.17401 110.101V94.1012C9.29092 94.1012 9.4844 94.1093 9.74148 94.1521C9.99393 94.1942 10.3679 94.2798 10.8163 94.4628L4.7701 109.276ZM9.17401 110.101C12.6878 110.101 15.9916 108.551 18.1722 105.561L5.24513 96.1326C5.63224 95.6019 6.23472 95.0296 7.06431 94.6182C7.88379 94.2118 8.64378 94.1012 9.17401 94.1012V110.101ZM18.1547 105.585C20.2928 102.676 20.6356 99.275 20.6356 96.89H4.63555C4.63555 97.3697 4.592 97.5058 4.61549 97.4051C4.6395 97.3022 4.77671 96.7698 5.26266 96.1087L18.1547 105.585ZM20.6356 96.89V92.7404H4.63555V96.89H20.6356ZM16.1926 99.9061L17.5923 99.2112L10.4783 84.8798L9.07851 85.5746L16.1926 99.9061ZM6.03535 92.0168L6.01643 97.2859L22.0163 97.3434L22.0352 92.0742L6.03535 92.0168ZM14.0164 105.315H15.8512V89.3146H14.0164V105.315ZM23.8512 97.3146V93.2036H7.85119V97.3146H23.8512ZM19.4082 100.369L20.808 99.6745L13.6939 85.343L12.2941 86.0379L19.4082 100.369ZM9.25093 92.5087V97.3146H25.2509V92.5087H9.25093ZM17.2509 105.315H19.1425V89.3146H17.2509V105.315ZM27.1425 97.3146V91.1191H11.1425V97.3146H27.1425ZM22.6995 98.2848L24.0993 97.59L16.9852 83.2585L15.5854 83.9534L22.6995 98.2848ZM12.5422 90.4243V97.7007H28.5422V90.4243H12.5422ZM20.5422 89.7007H14.0353V105.701H20.5422V89.7007ZM6.0531 97.1673C6.0379 97.3947 6.01928 97.5416 6.0059 97.6251C5.99262 97.708 5.98797 97.7067 6.00695 97.6427L21.3449 102.198C21.7556 100.815 21.9359 99.4547 22.0175 98.234L6.0531 97.1673ZM6.00695 97.6427C6.1868 97.0371 6.599 96.2311 7.36027 95.5283L18.2135 107.285C19.7692 105.848 20.7867 104.077 21.3449 102.198L6.00695 97.6427ZM7.32207 95.5638C7.59591 95.3077 8.08505 94.9544 8.77324 94.7204L13.9254 109.868C15.635 109.287 17.0699 108.354 18.2517 107.249L7.32207 95.5638ZM8.77324 94.7204C9.26712 94.5524 9.54443 94.5645 9.47666 94.5645V110.564C10.8843 110.564 12.41 110.384 13.9254 109.868L8.77324 94.7204ZM9.47666 94.5645C9.73338 94.5645 10.0894 94.6076 10.4953 94.751L5.16668 109.838C6.5562 110.328 8.00935 110.564 9.47666 110.564V94.5645ZM10.8076 94.8686C11.3357 95.0803 11.7474 95.3796 12.0255 95.6499L0.874856 107.124C1.94743 108.167 3.26708 109.084 4.85439 109.72L10.8076 94.8686ZM12.1638 95.7876C12.9178 96.5569 13.1566 97.2686 13.2225 97.5192L-2.25153 101.588C-1.76951 103.421 -0.849706 105.368 0.736583 106.987L12.1638 95.7876ZM13.1251 97.1796C13.1529 97.2688 13.1462 97.2755 13.1336 97.1814C13.1214 97.09 13.1072 96.9299 13.1072 96.697H-2.89282C-2.89282 98.399 -2.69254 100.195 -2.15416 101.928L13.1251 97.1796ZM13.107 96.7501L13.4096 51.1616L-2.59 51.0554L-2.89265 96.6439L13.107 96.7501ZM13.402 51.4628L13.5722 47.6219L-2.41209 46.9134L-2.58233 50.7543L13.402 51.4628Z" fill="white" mask="url(#path-1-inside-1_189_2156)"/>
<mask id="path-3-inside-2_189_2156" fill="white">
<path d="M27.6923 97.3532V97.7393H21.8285V97.3532H24.6469V93.9563C24.6469 93.0106 24.4199 92.2578 23.947 91.6981C23.4741 91.1384 22.8688 90.8489 22.0933 90.8489V90.4629C22.7743 90.4629 23.3985 90.5594 23.9281 90.7717C24.4767 90.984 24.8928 91.3121 25.1765 91.7753C25.6683 92.3929 25.9332 93.2615 25.9332 94.3616V97.3339H27.6923V97.3532Z"/>
</mask>
<path d="M27.6923 97.3532V97.7393H21.8285V97.3532H24.6469V93.9563C24.6469 93.0106 24.4199 92.2578 23.947 91.6981C23.4741 91.1384 22.8688 90.8489 22.0933 90.8489V90.4629C22.7743 90.4629 23.3985 90.5594 23.9281 90.7717C24.4767 90.984 24.8928 91.3121 25.1765 91.7753C25.6683 92.3929 25.9332 93.2615 25.9332 94.3616V97.3339H27.6923V97.3532Z" fill="white"/>
<path d="M27.6923 97.7393V105.739H35.6923V97.7393H27.6923ZM21.8285 97.7393H13.8285V105.739H21.8285V97.7393ZM21.8285 97.3532V89.3532H13.8285V97.3532H21.8285ZM24.6469 97.3532V105.353H32.6469V97.3532H24.6469ZM22.0933 90.8489H14.0933V98.8489H22.0933V90.8489ZM22.0933 90.4629V82.4629H14.0933V90.4629H22.0933ZM23.9281 90.7717L20.9515 98.1973L20.9959 98.2151L21.0406 98.2324L23.9281 90.7717ZM25.1765 91.7753L18.3546 95.9539L18.6117 96.3736L18.9182 96.7587L25.1765 91.7753ZM25.9332 97.3339H17.9332V105.334H25.9332V97.3339ZM27.6923 97.3339H35.6923V89.3339H27.6923V97.3339ZM19.6923 97.3532V97.7393H35.6923V97.3532H19.6923ZM27.6923 89.7393H21.8285V105.739H27.6923V89.7393ZM29.8285 97.7393V97.3532H13.8285V97.7393H29.8285ZM21.8285 105.353H24.6469V89.3532H21.8285V105.353ZM32.6469 97.3532V93.9563H16.6469V97.3532H32.6469ZM32.6469 93.9563C32.6469 91.7544 32.1054 88.9585 30.058 86.5352L17.836 96.861C16.7344 95.5571 16.6469 94.2667 16.6469 93.9563H32.6469ZM30.058 86.5352C28.0578 84.1677 25.2128 82.8489 22.0933 82.8489V98.8489C21.4607 98.8489 20.6387 98.7244 19.7719 98.323C18.9037 97.9209 18.2641 97.3677 17.836 96.861L30.058 86.5352ZM30.0933 90.8489V90.4629H14.0933V90.8489H30.0933ZM22.0933 98.4629C22.0618 98.4629 21.9478 98.461 21.7664 98.4311C21.5856 98.4013 21.3015 98.3376 20.9515 98.1973L26.9047 83.3461C25.1731 82.6519 23.4769 82.4629 22.0933 82.4629V98.4629ZM21.0406 98.2324C20.652 98.082 20.1606 97.8316 19.6538 97.4262C19.1373 97.0129 18.6955 96.5106 18.3546 95.9539L31.9985 87.5967C30.6818 85.4471 28.7786 84.0707 26.8157 83.311L21.0406 98.2324ZM18.9182 96.7587C17.9632 95.5592 17.9332 94.4825 17.9332 94.3616H33.9332C33.9332 92.0404 33.3735 89.2266 31.4348 86.792L18.9182 96.7587ZM17.9332 94.3616V97.3339H33.9332V94.3616H17.9332ZM25.9332 105.334H27.6923V89.3339H25.9332V105.334ZM19.6923 97.3339V97.3532H35.6923V97.3339H19.6923Z" fill="white" mask="url(#path-3-inside-2_189_2156)"/>
<mask id="path-5-inside-3_189_2156" fill="white">
<path d="M30.4918 97.3532H32.2698V97.7393H27.314V97.3532H29.092V91.1577L30.4918 90.4629V97.3532ZM30.1702 89.0539C30.0567 89.2276 29.9054 89.3048 29.7162 89.3048C29.546 89.3048 29.4136 89.2276 29.2623 89.0539C29.1488 88.9381 29.092 88.7451 29.092 88.5135C29.092 88.2819 29.1488 88.0889 29.2623 87.9537C29.3947 87.8186 29.546 87.7414 29.7162 87.7414C29.9054 87.7414 30.0567 87.8186 30.1702 87.9537C30.2837 88.0889 30.3404 88.2819 30.3404 88.5135C30.3404 88.7451 30.2837 88.9381 30.1702 89.0539Z"/>
</mask>
<path d="M30.4918 97.3532H32.2698V97.7393H27.314V97.3532H29.092V91.1577L30.4918 90.4629V97.3532ZM30.1702 89.0539C30.0567 89.2276 29.9054 89.3048 29.7162 89.3048C29.546 89.3048 29.4136 89.2276 29.2623 89.0539C29.1488 88.9381 29.092 88.7451 29.092 88.5135C29.092 88.2819 29.1488 88.0889 29.2623 87.9537C29.3947 87.8186 29.546 87.7414 29.7162 87.7414C29.9054 87.7414 30.0567 87.8186 30.1702 87.9537C30.2837 88.0889 30.3404 88.2819 30.3404 88.5135C30.3404 88.7451 30.2837 88.9381 30.1702 89.0539Z" fill="white"/>
<path d="M32.2698 97.3532H40.2698V89.3532H32.2698V97.3532ZM32.2698 97.7393V105.739H40.2698V97.7393H32.2698ZM27.314 97.7393H19.314V105.739H27.314V97.7393ZM27.314 97.3532V89.3532H19.314V97.3532H27.314ZM29.092 97.3532V105.353H37.092V97.3532H29.092ZM29.092 91.1577L25.535 83.992L21.092 86.1974V91.1577H29.092ZM30.4918 90.4629H38.4918V77.5603L26.9348 83.2971L30.4918 90.4629ZM30.1702 89.0539L24.4566 83.4544L23.9044 84.0178L23.473 84.6782L30.1702 89.0539ZM29.2623 89.0539L35.2944 83.799L35.1402 83.622L34.9759 83.4544L29.2623 89.0539ZM29.2623 87.9537L23.5487 82.3542L23.334 82.5733L23.1367 82.8081L29.2623 87.9537ZM30.4918 105.353H32.2698V89.3532H30.4918V105.353ZM24.2698 97.3532V97.7393H40.2698V97.3532H24.2698ZM32.2698 89.7393H27.314V105.739H32.2698V89.7393ZM35.314 97.7393V97.3532H19.314V97.7393H35.314ZM27.314 105.353H29.092V89.3532H27.314V105.353ZM37.092 97.3532V91.1577H21.092V97.3532H37.092ZM32.649 98.3234L34.0488 97.6286L26.9348 83.2971L25.535 83.992L32.649 98.3234ZM22.4918 90.4629V97.3532H38.4918V90.4629H22.4918ZM23.473 84.6782C24.0249 83.8334 24.8923 82.8981 26.1591 82.2114C27.4278 81.5236 28.6922 81.3048 29.7162 81.3048V97.3048C32.6152 97.3048 35.2813 95.8573 36.8675 93.4296L23.473 84.6782ZM29.7162 81.3048C30.9604 81.3048 32.2351 81.6176 33.3887 82.2632C34.4109 82.8351 35.0351 83.5014 35.2944 83.799L23.2301 94.3087C24.2036 95.4262 26.3493 97.3048 29.7162 97.3048V81.3048ZM34.9759 83.4544C36.0076 84.5071 36.5222 85.6388 36.777 86.4619C37.0331 87.2897 37.092 88.0056 37.092 88.5135H21.092C21.092 89.7238 21.3403 92.4001 23.5487 94.6534L34.9759 83.4544ZM37.092 88.5135C37.092 89.4739 36.8652 91.3407 35.3878 93.0994L23.1367 82.8081C21.4324 84.837 21.092 87.0898 21.092 88.5135H37.092ZM34.9759 93.5533C34.018 94.5307 32.2232 95.7414 29.7162 95.7414V79.7414C26.8688 79.7414 24.7714 81.1066 23.5487 82.3542L34.9759 93.5533ZM29.7162 95.7414C28.6921 95.7414 27.5882 95.525 26.5197 95.0139C25.4603 94.5072 24.6415 93.8099 24.0447 93.0994L36.2957 82.8081C34.7394 80.9553 32.386 79.7414 29.7162 79.7414V95.7414ZM24.0447 93.0994C22.5673 91.3407 22.3404 89.4739 22.3404 88.5135H38.3404C38.3404 87.0898 38.0001 84.837 36.2957 82.8081L24.0447 93.0994ZM22.3404 88.5135C22.3404 88.0056 22.3993 87.2897 22.6555 86.4619C22.9103 85.6388 23.4249 84.5071 24.4566 83.4544L35.8838 94.6534C38.0922 92.4001 38.3404 89.7238 38.3404 88.5135H22.3404Z" fill="white" mask="url(#path-5-inside-3_189_2156)"/>
<mask id="path-7-inside-4_189_2156" fill="white">
<path d="M42.6734 97.3532V97.7393H31.8916V97.3532H34.2371C33.7453 97.276 33.367 96.9672 33.0644 96.4268C32.6293 95.8285 32.4023 94.9792 32.4023 93.9177C32.4023 92.972 32.6293 92.1613 33.0644 91.4858C33.5183 90.6173 34.2939 90.1926 35.3531 90.1926H37.0745C38.5688 90.1926 39.6091 90.6366 40.1766 91.5051C40.6684 92.1613 40.9332 93.0106 40.9332 94.0914V97.3532H42.6734ZM37.0366 93.4931C37.0366 92.528 36.9042 91.7946 36.6394 91.3121C36.3746 90.8296 35.9395 90.5787 35.3342 90.5787C34.7289 90.5787 34.3128 90.8296 34.048 91.3121C33.7832 91.8139 33.6507 92.528 33.6507 93.4738V94.4967C33.6507 95.3267 33.7832 96.0022 34.0291 96.504C34.275 97.0058 34.6533 97.2953 35.1262 97.3339H37.0366V93.4931ZM39.628 97.3532L39.6091 93.6861C39.6091 92.7403 39.3821 91.9683 38.9093 91.4279C38.4364 90.8682 37.8311 90.598 37.0555 90.598H36.507C36.9799 90.791 37.3582 91.0998 37.6419 91.5051C38.0581 92.1227 38.285 92.9913 38.285 94.1107V97.3725H39.628V97.3532Z"/>
</mask>
<path d="M42.6734 97.3532V97.7393H31.8916V97.3532H34.2371C33.7453 97.276 33.367 96.9672 33.0644 96.4268C32.6293 95.8285 32.4023 94.9792 32.4023 93.9177C32.4023 92.972 32.6293 92.1613 33.0644 91.4858C33.5183 90.6173 34.2939 90.1926 35.3531 90.1926H37.0745C38.5688 90.1926 39.6091 90.6366 40.1766 91.5051C40.6684 92.1613 40.9332 93.0106 40.9332 94.0914V97.3532H42.6734ZM37.0366 93.4931C37.0366 92.528 36.9042 91.7946 36.6394 91.3121C36.3746 90.8296 35.9395 90.5787 35.3342 90.5787C34.7289 90.5787 34.3128 90.8296 34.048 91.3121C33.7832 91.8139 33.6507 92.528 33.6507 93.4738V94.4967C33.6507 95.3267 33.7832 96.0022 34.0291 96.504C34.275 97.0058 34.6533 97.2953 35.1262 97.3339H37.0366V93.4931ZM39.628 97.3532L39.6091 93.6861C39.6091 92.7403 39.3821 91.9683 38.9093 91.4279C38.4364 90.8682 37.8311 90.598 37.0555 90.598H36.507C36.9799 90.791 37.3582 91.0998 37.6419 91.5051C38.0581 92.1227 38.285 92.9913 38.285 94.1107V97.3725H39.628V97.3532Z" fill="white"/>
<path d="M42.6734 97.7393V105.739H50.6734V97.7393H42.6734ZM31.8916 97.7393H23.8916V105.739H31.8916V97.7393ZM31.8916 97.3532V89.3532H23.8916V97.3532H31.8916ZM34.2371 97.3532V105.353L35.4778 89.45L34.2371 97.3532ZM33.0644 96.4268L40.0443 92.5179L39.8131 92.1049L39.5347 91.7221L33.0644 96.4268ZM33.0644 91.4858L39.7902 95.8174L39.9864 95.5128L40.1543 95.1916L33.0644 91.4858ZM40.1766 91.5051L33.4793 95.8808L33.6203 96.0966L33.7749 96.3028L40.1766 91.5051ZM40.9332 97.3532H32.9332V105.353H40.9332V97.3532ZM34.048 91.3121L27.0348 87.4631L27.0033 87.5205L26.9727 87.5784L34.048 91.3121ZM35.1262 97.3339L34.4753 105.307L34.8002 105.334H35.1262V97.3339ZM37.0366 97.3339V105.334H45.0366V97.3339H37.0366ZM39.628 97.3532H47.628V97.3326L47.6279 97.312L39.628 97.3532ZM39.6091 93.6861H31.6091V93.7067L31.6092 93.7274L39.6091 93.6861ZM38.9093 91.4279L32.7983 96.5908L32.843 96.6438L32.8887 96.696L38.9093 91.4279ZM36.507 90.598V82.598L33.4839 98.0048L36.507 90.598ZM37.6419 91.5051L44.2765 87.0349L44.2366 86.9757L44.1957 86.9173L37.6419 91.5051ZM38.285 97.3725H30.285V105.373H38.285V97.3725ZM39.628 97.3725V105.373H47.628V97.3725H39.628ZM34.6734 97.3532V97.7393H50.6734V97.3532H34.6734ZM42.6734 89.7393H31.8916V105.739H42.6734V89.7393ZM39.8916 97.7393V97.3532H23.8916V97.7393H39.8916ZM31.8916 105.353H34.2371V89.3532H31.8916V105.353ZM35.4778 89.45C36.6165 89.6288 37.6856 90.1066 38.5636 90.8058C39.3811 91.4568 39.8309 92.1367 40.0443 92.5179L26.0844 100.336C27.1877 102.306 29.3749 104.688 32.9965 105.256L35.4778 89.45ZM39.5347 91.7221C39.9902 92.3484 40.2047 92.9245 40.3038 93.2987C40.4012 93.6668 40.4023 93.8934 40.4023 93.9177H24.4023C24.4023 95.9936 24.8298 98.7053 26.594 101.132L39.5347 91.7221ZM40.4023 93.9177C40.4023 94.2963 40.2947 95.034 39.7902 95.8174L26.3385 87.1542C24.9639 89.2886 24.4023 91.6476 24.4023 93.9177H40.4023ZM40.1543 95.1916C39.7328 95.998 38.9926 96.8758 37.8936 97.4919C36.8422 98.0813 35.8899 98.1926 35.3531 98.1926V82.1926C31.7467 82.1926 27.9971 83.9103 25.9744 87.78L40.1543 95.1916ZM35.3531 98.1926H37.0745V82.1926H35.3531V98.1926ZM37.0745 98.1926C37.073 98.1926 36.5806 98.1981 35.8503 97.8885C35.0332 97.5421 34.1365 96.8866 33.4793 95.8808L46.8738 87.1294C44.2549 83.1209 40.0181 82.1926 37.0745 82.1926V98.1926ZM33.7749 96.3028C33.4263 95.8377 33.2003 95.3535 33.0711 94.9189C32.9466 94.5002 32.9332 94.2013 32.9332 94.0914H48.9332C48.9332 91.6647 48.3165 89.0267 46.5783 86.7074L33.7749 96.3028ZM32.9332 94.0914V97.3532H48.9332V94.0914H32.9332ZM40.9332 105.353H42.6734V89.3532H40.9332V105.353ZM45.0366 93.4931C45.0366 92.0747 44.8894 89.7166 43.6526 87.4631L29.6262 95.1611C29.2265 94.4329 29.103 93.8546 29.0662 93.6521C29.0253 93.4266 29.0366 93.3535 29.0366 93.4931H45.0366ZM43.6526 87.4631C41.8676 84.2106 38.612 82.5787 35.3342 82.5787V98.5787C34.5203 98.5787 33.3702 98.4033 32.1758 97.7277C30.9548 97.037 30.1252 96.0703 29.6262 95.1611L43.6526 87.4631ZM35.3342 82.5787C33.9088 82.5787 32.2128 82.8826 30.5589 83.8388C28.8888 84.8045 27.7551 86.1505 27.0348 87.4631L41.0612 95.1611C40.6056 95.9911 39.8125 96.9704 38.5679 97.69C37.3397 98.4002 36.1543 98.5787 35.3342 98.5787V82.5787ZM26.9727 87.5784C25.8278 89.748 25.6507 91.9745 25.6507 93.4738H41.6507C41.6507 93.3551 41.6606 93.4427 41.6177 93.6755C41.5758 93.9029 41.4575 94.4123 41.1232 95.0458L26.9727 87.5784ZM25.6507 93.4738V94.4967H41.6507V93.4738H25.6507ZM25.6507 94.4967C25.6507 96.0752 25.8875 98.0698 26.8452 100.024L41.2129 92.9838C41.4595 93.487 41.5624 93.8956 41.6066 94.1273C41.6515 94.3634 41.6507 94.4962 41.6507 94.4967H25.6507ZM26.8452 100.024C28.0456 102.474 30.5994 104.991 34.4753 105.307L35.777 89.3605C37.0546 89.4648 38.2946 89.9354 39.328 90.7195C40.3177 91.4704 40.895 92.3349 41.2129 92.9838L26.8452 100.024ZM35.1262 105.334H37.0366V89.3339H35.1262V105.334ZM45.0366 97.3339V93.4931H29.0366V97.3339H45.0366ZM47.6279 97.312L47.609 93.6448L31.6092 93.7274L31.6282 97.3945L47.6279 97.312ZM47.6091 93.6861C47.6091 91.5746 47.109 88.6502 44.9298 86.1597L32.8887 96.696C31.6553 95.2864 31.6091 93.9061 31.6091 93.6861H47.6091ZM45.0202 86.265C42.923 83.7826 40.0197 82.598 37.0555 82.598V98.598C36.4991 98.598 35.7031 98.4967 34.8288 98.1055C33.9388 97.7073 33.2626 97.1404 32.7983 96.5908L45.0202 86.265ZM37.0555 82.598H36.507V98.598H37.0555V82.598ZM33.4839 98.0048C32.5016 97.6038 31.666 96.9184 31.0881 96.0929L44.1957 86.9173C43.0503 85.2811 41.4582 83.9781 39.5301 83.1911L33.4839 98.0048ZM31.0074 95.9753C30.2421 94.8395 30.285 93.9674 30.285 94.1107H46.285C46.285 92.0152 45.874 89.406 44.2765 87.0349L31.0074 95.9753ZM30.285 94.1107V97.3725H46.285V94.1107H30.285ZM38.285 105.373H39.628V89.3725H38.285V105.373ZM47.628 97.3725V97.3532H31.628V97.3725H47.628Z" fill="white" mask="url(#path-7-inside-4_189_2156)"/>
<mask id="path-9-inside-5_189_2156" fill="white">
<path d="M50.807 97.7393H49.0668C48.4993 98.4534 47.7238 98.8201 46.7402 98.8201C46.2862 98.8201 45.8701 98.7429 45.4918 98.5692C45.1135 98.3955 44.7541 98.1253 44.4325 97.7393H42.295V97.3532H44.1866C43.7515 96.7163 43.5246 95.7899 43.5246 94.5546C43.5246 93.3001 43.8272 92.2964 44.4325 91.563C45.0378 90.8296 45.8133 90.4629 46.7402 90.4629C47.667 90.4629 48.4426 90.8296 49.0479 91.563C49.6532 92.2964 49.9558 93.3001 49.9558 94.5546C49.9558 95.7127 49.7478 96.6391 49.3127 97.3532H50.7881V97.7393H50.807ZM48.575 94.0721C48.575 93.0492 48.4426 92.2385 48.1589 91.6981C47.8751 91.1384 47.4211 90.8682 46.7591 90.8682C46.116 90.8682 45.6431 91.1384 45.3594 91.6788C45.0756 92.2192 44.9432 93.0299 44.9432 94.0721V95.2302C44.9432 96.2724 45.0756 97.083 45.3594 97.6235C45.6431 98.1639 46.0971 98.4341 46.7591 98.4341C47.4022 98.4341 47.8751 98.1639 48.1589 97.6042C48.4426 97.0444 48.575 96.2531 48.575 95.2302V94.0721Z"/>
</mask>
<path d="M50.807 97.7393H49.0668C48.4993 98.4534 47.7238 98.8201 46.7402 98.8201C46.2862 98.8201 45.8701 98.7429 45.4918 98.5692C45.1135 98.3955 44.7541 98.1253 44.4325 97.7393H42.295V97.3532H44.1866C43.7515 96.7163 43.5246 95.7899 43.5246 94.5546C43.5246 93.3001 43.8272 92.2964 44.4325 91.563C45.0378 90.8296 45.8133 90.4629 46.7402 90.4629C47.667 90.4629 48.4426 90.8296 49.0479 91.563C49.6532 92.2964 49.9558 93.3001 49.9558 94.5546C49.9558 95.7127 49.7478 96.6391 49.3127 97.3532H50.7881V97.7393H50.807ZM48.575 94.0721C48.575 93.0492 48.4426 92.2385 48.1589 91.6981C47.8751 91.1384 47.4211 90.8682 46.7591 90.8682C46.116 90.8682 45.6431 91.1384 45.3594 91.6788C45.0756 92.2192 44.9432 93.0299 44.9432 94.0721V95.2302C44.9432 96.2724 45.0756 97.083 45.3594 97.6235C45.6431 98.1639 46.0971 98.4341 46.7591 98.4341C47.4022 98.4341 47.8751 98.1639 48.1589 97.6042C48.4426 97.0444 48.575 96.2531 48.575 95.2302V94.0721Z" fill="white"/>
<path d="M49.0668 97.7393V89.7393H45.2056L42.8035 92.7623L49.0668 97.7393ZM44.4325 97.7393L50.5792 92.6189L48.1804 89.7393H44.4325V97.7393ZM42.295 97.7393H34.295V105.739H42.295V97.7393ZM42.295 97.3532V89.3532H34.295V97.3532H42.295ZM44.1866 97.3532V105.353H59.3392L50.7926 92.841L44.1866 97.3532ZM49.3127 97.3532L42.4807 93.1911L35.0713 105.353H49.3127V97.3532ZM50.7881 97.3532H58.7881V89.3532H50.7881V97.3532ZM50.7881 97.7393H42.7881V105.739H50.7881V97.7393ZM48.1589 91.6981L41.0233 95.3152L41.0491 95.3663L41.0757 95.4169L48.1589 91.6981ZM50.807 89.7393H49.0668V105.739H50.807V89.7393ZM42.8035 92.7623C43.2312 92.224 43.8574 91.6802 44.6767 91.2979C45.4833 90.9215 46.222 90.8201 46.7402 90.8201V106.82C50.0064 106.82 53.15 105.46 55.3301 102.716L42.8035 92.7623ZM46.7402 90.8201C47.203 90.8201 47.9663 90.9024 48.83 91.299L42.1535 105.839C43.7739 106.583 45.3695 106.82 46.7402 106.82V90.8201ZM48.83 91.299C49.598 91.6516 50.1812 92.1411 50.5792 92.6189L38.2858 102.86C39.3269 104.109 40.6289 105.139 42.1535 105.839L48.83 91.299ZM44.4325 89.7393H42.295V105.739H44.4325V89.7393ZM50.295 97.7393V97.3532H34.295V97.7393H50.295ZM42.295 105.353H44.1866V89.3532H42.295V105.353ZM50.7926 92.841C51.2305 93.482 51.4061 94.037 51.4739 94.3212C51.5402 94.5988 51.5246 94.7027 51.5246 94.5546H35.5246C35.5246 96.5938 35.8697 99.3607 37.5806 101.866L50.7926 92.841ZM51.5246 94.5546C51.5246 94.5583 51.5253 94.7953 51.4078 95.1833C51.284 95.5917 51.0407 96.1243 50.6026 96.6551L38.2624 86.4709C36.1339 89.0499 35.5246 92.0576 35.5246 94.5546H51.5246ZM50.6026 96.6551C50.2403 97.0941 49.6803 97.5921 48.9026 97.962C48.1218 98.3335 47.3589 98.4629 46.7402 98.4629V82.4629C43.3829 82.4629 40.3599 83.9293 38.2624 86.4709L50.6026 96.6551ZM46.7402 98.4629C46.1215 98.4629 45.3586 98.3335 44.5777 97.962C43.8001 97.592 43.2401 97.0941 42.8778 96.6551L55.218 86.4709C53.1205 83.9293 50.0975 82.4629 46.7402 82.4629V98.4629ZM42.8778 96.6551C42.4397 96.1243 42.1963 95.5917 42.0726 95.1833C41.955 94.7953 41.9558 94.5584 41.9558 94.5546H57.9558C57.9558 92.0576 57.3465 89.0499 55.218 86.4709L42.8778 96.6551ZM41.9558 94.5546C41.9558 94.8336 41.8945 94.1533 42.4807 93.1911L56.1447 101.515C57.601 99.1249 57.9558 96.5918 57.9558 94.5546H41.9558ZM49.3127 105.353H50.7881V89.3532H49.3127V105.353ZM42.7881 97.3532V97.7393H58.7881V97.3532H42.7881ZM50.7881 105.739H50.807V89.7393H50.7881V105.739ZM56.575 94.0721C56.575 92.6475 56.4386 90.2585 55.242 87.9793L41.0757 95.4169C40.7129 94.7259 40.6131 94.1996 40.5894 94.0621C40.561 93.8974 40.575 93.8828 40.575 94.0721H56.575ZM55.2944 88.081C54.59 86.6913 53.4404 85.2361 51.6838 84.1936C49.9536 83.1668 48.1871 82.8682 46.7591 82.8682V98.8682C45.9932 98.8682 44.7847 98.7047 43.5179 97.9529C42.2248 97.1854 41.444 96.1452 41.0233 95.3152L55.2944 88.081ZM46.7591 82.8682C45.3068 82.8682 43.592 83.1802 41.9253 84.1421C40.2306 85.1203 39.0368 86.5114 38.2762 87.96L52.4425 95.3976C51.9656 96.3058 51.1502 97.2916 49.9236 97.9995C48.7251 98.6913 47.5682 98.8682 46.7591 98.8682V82.8682ZM38.2762 87.96C37.076 90.2462 36.9432 92.6424 36.9432 94.0721H52.9432C52.9432 93.8661 52.9581 93.8743 52.9301 94.0373C52.9066 94.1751 52.8066 94.7041 52.4425 95.3976L38.2762 87.96ZM36.9432 94.0721V95.2302H52.9432V94.0721H36.9432ZM36.9432 95.2302C36.9432 96.6599 37.076 99.0561 38.2762 101.342L52.4425 93.9047C52.8066 94.5982 52.9066 95.1272 52.9301 95.2649C52.9581 95.428 52.9432 95.4362 52.9432 95.2302H36.9432ZM38.2762 101.342C39.0001 102.721 40.1588 104.134 41.8877 105.142C43.5905 106.135 45.3297 106.434 46.7591 106.434V90.4341C47.5265 90.4341 48.7077 90.5978 49.947 91.3204C51.2125 92.0583 52.0023 93.0663 52.4425 93.9047L38.2762 101.342ZM46.7591 106.434C48.2104 106.434 49.9518 106.122 51.646 105.127C53.3696 104.114 54.5542 102.681 55.2944 101.221L41.0233 93.987C41.4797 93.0865 42.2861 92.0688 43.5415 91.3313C44.7675 90.611 45.9509 90.4341 46.7591 90.4341V106.434ZM55.2944 101.221C56.4174 99.0059 56.575 96.7286 56.575 95.2302H40.575C40.575 95.4169 40.5613 95.3949 40.5908 95.2248C40.6187 95.0638 40.7147 94.5958 41.0233 93.987L55.2944 101.221ZM56.575 95.2302V94.0721H40.575V95.2302H56.575Z" fill="white" mask="url(#path-9-inside-5_189_2156)"/>
<mask id="path-11-inside-6_189_2156" fill="white">
<path d="M49.3317 97.1409H52.2636L52.2068 56.7637L53.6066 54.7757V97.72L48.9723 97.7972L49.3317 97.1409Z"/>
</mask>
<path d="M49.3317 97.1409H52.2636L52.2068 56.7637L53.6066 54.7757V97.72L48.9723 97.7972L49.3317 97.1409Z" fill="white"/>
<path d="M49.3317 97.1409V89.1409H44.5918L42.315 93.2982L49.3317 97.1409ZM52.2636 97.1409V105.141H60.2748L60.2636 97.1297L52.2636 97.1409ZM52.2068 56.7637L45.6656 52.158L44.2033 54.2348L44.2069 56.7749L52.2068 56.7637ZM53.6066 54.7757H61.6066V29.5178L47.0654 50.17L53.6066 54.7757ZM53.6066 97.72L53.7399 105.719L61.6066 105.588V97.72H53.6066ZM48.9723 97.7972L41.9556 93.9544L35.3449 106.025L49.1056 105.796L48.9723 97.7972ZM49.3317 105.141H52.2636V89.1409H49.3317V105.141ZM60.2636 97.1297L60.2068 56.7524L44.2069 56.7749L44.2636 97.1522L60.2636 97.1297ZM58.7481 61.3693L60.1478 59.3814L47.0654 50.17L45.6656 52.158L58.7481 61.3693ZM45.6066 54.7757V97.72H61.6066V54.7757H45.6066ZM53.4733 89.7211L48.839 89.7983L49.1056 105.796L53.7399 105.719L53.4733 89.7211ZM55.9889 101.64L56.3483 100.984L42.315 93.2982L41.9556 93.9544L55.9889 101.64Z" fill="white" mask="url(#path-11-inside-6_189_2156)"/>
<mask id="path-13-inside-7_189_2156" fill="white">
<path d="M54.8739 47.0168L56.2926 44.5656V97.7393H54.8739V47.0168Z"/>
</mask>
<path d="M54.8739 47.0168L56.2926 44.5656V97.7393H54.8739V47.0168Z" fill="white"/>
<path d="M54.8739 47.0168L47.9499 43.0094L46.8739 44.8686V47.0168H54.8739ZM56.2926 44.5656H64.2926V14.7722L49.3686 40.5582L56.2926 44.5656ZM56.2926 97.7393V105.739H64.2926V97.7393H56.2926ZM54.8739 97.7393H46.8739V105.739H54.8739V97.7393ZM61.7979 51.0241L63.2165 48.5729L49.3686 40.5582L47.9499 43.0094L61.7979 51.0241ZM48.2926 44.5656V97.7393H64.2926V44.5656H48.2926ZM56.2926 89.7393H54.8739V105.739H56.2926V89.7393ZM62.8739 97.7393V47.0168H46.8739V97.7393H62.8739Z" fill="white" mask="url(#path-13-inside-7_189_2156)"/>
<mask id="path-15-inside-8_189_2156" fill="white">
<path d="M29.0353 100.306L30.4539 98.9359L30.3783 105.846H28.9974L29.0353 100.306Z"/>
</mask>
<path d="M29.0353 100.306L30.4539 98.9359L30.3783 105.846H28.9974L29.0353 100.306Z" fill="white"/>
<path d="M29.0353 100.306L23.4772 94.5523L21.0584 96.8887L21.0355 100.252L29.0353 100.306ZM30.4539 98.9359L38.4535 99.0235L38.663 79.8835L24.8959 93.1819L30.4539 98.9359ZM30.3783 105.846V113.846H38.2911L38.3778 105.933L30.3783 105.846ZM28.9974 105.846L20.9976 105.791L20.9426 113.846H28.9974V105.846ZM34.5933 106.06L36.012 104.69L24.8959 93.1819L23.4772 94.5523L34.5933 106.06ZM22.4544 98.8483L22.3787 105.758L38.3778 105.933L38.4535 99.0235L22.4544 98.8483ZM30.3783 97.8456H28.9974V113.846H30.3783V97.8456ZM36.9973 105.9L37.0351 100.361L21.0355 100.252L20.9976 105.791L36.9973 105.9Z" fill="white" mask="url(#path-15-inside-8_189_2156)"/>
<mask id="path-17-inside-9_189_2156" fill="white">
<path d="M3.29133 30.3216L3.10217 30.1479L24.4389 10.1329L23.4363 11.5033L3.29133 30.3216Z"/>
</mask>
<path d="M3.29133 30.3216L3.10217 30.1479L24.4389 10.1329L23.4363 11.5033L3.29133 30.3216Z" fill="white"/>
<path d="M3.29133 30.3216L-2.11983 36.2139L3.33769 41.2258L8.7524 36.1677L3.29133 30.3216ZM3.10217 30.1479L-2.37107 24.3132L-8.65745 30.2101L-2.30898 36.0402L3.10217 30.1479ZM24.4389 10.1329L30.8955 14.8565L18.9656 4.29824L24.4389 10.1329ZM23.4363 11.5033L28.8974 17.3494L29.4481 16.835L29.893 16.2268L23.4363 11.5033ZM8.70249 24.4293L8.51333 24.2555L-2.30898 36.0402L-2.11983 36.2139L8.70249 24.4293ZM8.57542 35.9826L29.9121 15.9676L18.9656 4.29824L-2.37107 24.3132L8.57542 35.9826ZM17.9822 5.4094L16.9797 6.77976L29.893 16.2268L30.8955 14.8565L17.9822 5.4094ZM17.9753 5.6572L-2.16974 24.4755L8.7524 36.1677L28.8974 17.3494L17.9753 5.6572Z" fill="white" mask="url(#path-17-inside-9_189_2156)"/>
<mask id="path-19-inside-10_189_2156" fill="white">
<path d="M3.02644 33.4676L2.83728 33.2939L24.174 13.279L23.1714 14.6493L3.02644 33.4676Z"/>
</mask>
<path d="M3.02644 33.4676L2.83728 33.2939L24.174 13.279L23.1714 14.6493L3.02644 33.4676Z" fill="white"/>
<path d="M3.02644 33.4676L-2.38467 39.36L3.07284 44.3717L8.4875 39.3137L3.02644 33.4676ZM2.83728 33.2939L-2.63596 27.4592L-8.92239 33.3562L-2.57383 39.1863L2.83728 33.2939ZM24.174 13.279L30.6306 18.0025L18.7007 7.44427L24.174 13.279ZM23.1714 14.6493L28.6325 20.4954L29.1832 19.981L29.6281 19.3729L23.1714 14.6493ZM8.43754 27.5752L8.24839 27.4015L-2.57383 39.1863L-2.38467 39.36L8.43754 27.5752ZM8.31052 39.1286L29.6472 19.1137L18.7007 7.44427L-2.63596 27.4592L8.31052 39.1286ZM17.7173 8.55543L16.7148 9.92578L29.6281 19.3729L30.6306 18.0025L17.7173 8.55543ZM17.7104 8.80323L-2.43463 27.6215L8.4875 39.3137L28.6325 20.4954L17.7104 8.80323Z" fill="white" mask="url(#path-19-inside-10_189_2156)"/>
<mask id="path-21-inside-11_189_2156" fill="white">
<path d="M34.7288 21.6169L33.6506 20.3044L55.8953 39.335L55.7061 39.5087L34.7288 21.6169Z"/>
</mask>
<path d="M34.7288 21.6169L33.6506 20.3044L55.8953 39.335L55.7061 39.5087L34.7288 21.6169Z" fill="white"/>
<path d="M34.7288 21.6169L28.5472 26.6951L28.9976 27.2433L29.5373 27.7036L34.7288 21.6169ZM33.6506 20.3044L38.8513 14.2255L27.4691 25.3826L33.6506 20.3044ZM55.8953 39.335L61.3064 45.2274L67.9537 39.123L61.0959 33.2561L55.8953 39.335ZM55.7061 39.5087L50.5146 45.5955L55.902 50.1904L61.1172 45.4011L55.7061 39.5087ZM40.9104 16.5387L39.8322 15.2263L27.4691 25.3826L28.5472 26.6951L40.9104 16.5387ZM28.45 26.3834L50.6947 45.414L61.0959 33.2561L38.8513 14.2255L28.45 26.3834ZM50.4842 33.4427L50.295 33.6164L61.1172 45.4011L61.3064 45.2274L50.4842 33.4427ZM60.8976 33.422L39.9203 15.5301L29.5373 27.7036L50.5146 45.5955L60.8976 33.422Z" fill="white" mask="url(#path-21-inside-11_189_2156)"/>
<mask id="path-23-inside-12_189_2156" fill="white">
<path d="M34.464 24.2225L33.3859 22.9101L55.6305 41.9407L55.4414 42.1144L34.464 24.2225Z"/>
</mask>
<path d="M34.464 24.2225L33.3859 22.9101L55.6305 41.9407L55.4414 42.1144L34.464 24.2225Z" fill="white"/>
<path d="M34.464 24.2225L28.2825 29.3007L28.7328 29.8489L29.2726 30.3093L34.464 24.2225ZM33.3859 22.9101L38.5865 16.8311L27.2043 27.9882L33.3859 22.9101ZM55.6305 41.9407L61.0416 47.833L67.6889 41.7286L60.8311 35.8617L55.6305 41.9407ZM55.4414 42.1144L50.2499 48.2011L55.6372 52.796L60.8525 48.0067L55.4414 42.1144ZM40.6456 19.1443L39.5675 17.8319L27.2043 27.9882L28.2825 29.3007L40.6456 19.1443ZM28.1852 28.989L50.4299 48.0196L60.8311 35.8617L38.5865 16.8311L28.1852 28.989ZM50.2194 36.0483L50.0302 36.222L60.8525 48.0067L61.0416 47.833L50.2194 36.0483ZM60.6328 36.0276L39.6555 18.1358L29.2726 30.3093L50.2499 48.2011L60.6328 36.0276Z" fill="white" mask="url(#path-23-inside-12_189_2156)"/>
<mask id="path-25-inside-13_189_2156" fill="white">
<path d="M19.2181 24.1839L20.6368 21.0186L20.5611 88.7837L19.2181 89.4399V24.1839Z"/>
</mask>
<path d="M19.2181 24.1839L20.6368 21.0186L20.5611 88.7837L19.2181 89.4399V24.1839Z" fill="white"/>
<path d="M20.6368 21.0186L28.6368 21.0275L13.3365 17.7467L20.6368 21.0186ZM20.5611 88.7837L24.0733 95.9715L28.5556 93.7814L28.5611 88.7926L20.5611 88.7837ZM19.2181 89.4399H11.2181V102.253L22.7303 96.6277L19.2181 89.4399ZM26.5185 27.4558L27.9371 24.2905L13.3365 17.7467L11.9178 20.912L26.5185 27.4558ZM12.6368 21.0097L12.5611 88.7748L28.5611 88.7926L28.6368 21.0275L12.6368 21.0097ZM17.049 81.5959L15.706 82.2521L22.7303 96.6277L24.0733 95.9715L17.049 81.5959ZM27.2181 89.4399V24.1839H11.2181V89.4399H27.2181Z" fill="white" mask="url(#path-25-inside-13_189_2156)"/>
<mask id="path-27-inside-14_189_2156" fill="white">
<path d="M15.9458 34.2203L17.3645 31.441L17.2888 91.177L15.9458 91.756V34.2203Z"/>
</mask>
<path d="M15.9458 34.2203L17.3645 31.441L17.2888 91.177L15.9458 91.756V34.2203Z" fill="white"/>
<path d="M15.9458 34.2203L8.82037 30.5833L7.9458 32.2966V34.2203H15.9458ZM17.3645 31.441L25.3645 31.4511L10.239 27.8039L17.3645 31.441ZM17.2888 91.177L20.4561 98.5233L25.2821 96.4426L25.2888 91.1871L17.2888 91.177ZM15.9458 91.756H7.9458V103.917L19.1131 99.1023L15.9458 91.756ZM23.0712 37.8574L24.4899 35.0781L10.239 27.8039L8.82037 30.5833L23.0712 37.8574ZM9.36447 31.4309L9.28881 91.1669L25.2888 91.1871L25.3645 31.4511L9.36447 31.4309ZM14.1215 83.8307L12.7785 84.4097L19.1131 99.1023L20.4561 98.5233L14.1215 83.8307ZM23.9458 91.756V34.2203H7.9458V91.756H23.9458Z" fill="white" mask="url(#path-27-inside-14_189_2156)"/>
<mask id="path-29-inside-15_189_2156" fill="white">
<path d="M12.6733 43.2145L14.092 40.8984L14.0163 90.6944L12.6733 91.177V43.2145Z"/>
</mask>
<path d="M12.6733 43.2145L14.092 40.8984L14.0163 90.6944L12.6733 91.177V43.2145Z" fill="white"/>
<path d="M12.6733 43.2145L5.85138 39.0359L4.67334 40.9591V43.2145H12.6733ZM14.092 40.8984L22.092 40.9105L22.1352 12.451L7.27004 36.7198L14.092 40.8984ZM14.0163 90.6944L16.7213 98.2233L22.0078 96.3239L22.0163 90.7066L14.0163 90.6944ZM12.6733 91.177H4.67334V102.552L15.3783 98.7058L12.6733 91.177ZM19.4953 47.3931L20.914 45.077L7.27004 36.7198L5.85138 39.0359L19.4953 47.3931ZM6.09201 40.8862L6.01635 90.6823L22.0163 90.7066L22.092 40.9105L6.09201 40.8862ZM11.3114 83.1656L9.96835 83.6481L15.3783 98.7058L16.7213 98.2233L11.3114 83.1656ZM20.6733 91.177V43.2145H4.67334V91.177H20.6733Z" fill="white" mask="url(#path-29-inside-15_189_2156)"/>
<mask id="path-31-inside-16_189_2156" fill="white">
<path d="M28.9974 1.35106L30.3783 0L30.4539 86.5448H29.0353L28.9974 1.35106Z"/>
</mask>
<path d="M28.9974 1.35106L30.3783 0L30.4539 86.5448H29.0353L28.9974 1.35106Z" fill="white"/>
<path d="M28.9974 1.35106L23.4026 -4.36712L20.9959 -2.01238L20.9974 1.35461L28.9974 1.35106ZM30.3783 0L38.3783 -0.00699391L38.3617 -19.0036L24.7834 -5.71817L30.3783 0ZM30.4539 86.5448V94.5448H38.4609L38.4539 86.5378L30.4539 86.5448ZM29.0353 86.5448L21.0353 86.5483L21.0388 94.5448H29.0353V86.5448ZM34.5923 7.06923L35.9731 5.71817L24.7834 -5.71817L23.4026 -4.36712L34.5923 7.06923ZM22.3783 0.00699391L22.4539 86.5518L38.4539 86.5378L38.3783 -0.00699391L22.3783 0.00699391ZM30.4539 78.5448H29.0353V94.5448H30.4539V78.5448ZM37.0353 86.5412L36.9974 1.3475L20.9974 1.35461L21.0353 86.5483L37.0353 86.5412Z" fill="white" mask="url(#path-31-inside-16_189_2156)"/>
<mask id="path-33-inside-17_189_2156" fill="white">
<path d="M29.7729 14.6493L30.3782 13.3176L59.9243 37.9261L59.1298 39.1227L29.7729 14.6493Z"/>
</mask>
<path d="M29.7729 14.6493L30.3782 13.3176L59.9243 37.9261L59.1298 39.1227L29.7729 14.6493Z" fill="white"/>
<path d="M29.7729 14.6493L22.4899 11.3391L19.967 16.8899L24.6503 20.7941L29.7729 14.6493ZM30.3782 13.3176L35.4981 7.17045L27.4364 0.455979L23.0952 10.0073L30.3782 13.3176ZM59.9243 37.9261L66.5892 42.3509L70.5586 36.3719L65.0441 31.779L59.9243 37.9261ZM59.1298 39.1227L54.0072 45.2675L60.8601 50.9805L65.7947 43.5475L59.1298 39.1227ZM37.056 17.9595L37.6613 16.6278L23.0952 10.0073L22.4899 11.3391L37.056 17.9595ZM25.2584 19.4647L54.8044 44.0732L65.0441 31.779L35.4981 7.17045L25.2584 19.4647ZM53.2594 33.5013L52.4649 34.6979L65.7947 43.5475L66.5892 42.3509L53.2594 33.5013ZM64.2525 32.9779L34.8956 8.50451L24.6503 20.7941L54.0072 45.2675L64.2525 32.9779Z" fill="white" mask="url(#path-33-inside-17_189_2156)"/>
<mask id="path-35-inside-18_189_2156" fill="white">
<path d="M1.51326 28.681L0.0756836 27.9669L29.0164 1.33176L29.792 2.4512L1.51326 28.681Z"/>
</mask>
<path d="M1.51326 28.681L0.0756836 27.9669L29.0164 1.33176L29.792 2.4512L1.51326 28.681Z" fill="white"/>
<path d="M1.51326 28.681L-2.04586 35.8457L2.9026 38.3039L6.95364 34.5463L1.51326 28.681ZM0.0756836 27.9669L-5.34183 22.0804L-13.9002 29.9569L-3.48344 35.1315L0.0756836 27.9669ZM29.0164 1.33176L35.5925 -3.22405L30.3599 -10.7771L23.5989 -4.55472L29.0164 1.33176ZM29.792 2.4512L35.2323 8.31655L40.319 3.59843L36.368 -2.1046L29.792 2.4512ZM5.07239 21.5163L3.63481 20.8022L-3.48344 35.1315L-2.04586 35.8457L5.07239 21.5163ZM5.4932 33.8533L34.4339 7.21823L23.5989 -4.55472L-5.34183 22.0804L5.4932 33.8533ZM22.4403 5.88756L23.2159 7.00701L36.368 -2.1046L35.5925 -3.22405L22.4403 5.88756ZM24.3516 -3.41414L-3.92712 22.8156L6.95364 34.5463L35.2323 8.31655L24.3516 -3.41414Z" fill="white" mask="url(#path-35-inside-18_189_2156)"/>
<mask id="path-37-inside-19_189_2156" fill="white">
<path d="M58.4868 38.0998L60.0001 38.0033L59.9055 105.131H58.4868V38.0998Z"/>
</mask>
<path d="M58.4868 38.0998L60.0001 38.0033L59.9055 105.131H58.4868V38.0998Z" fill="white"/>
<path d="M58.4868 38.0998L57.9777 30.116L50.4868 30.5937V38.0998H58.4868ZM60.0001 38.0033L68 38.0145L68.0121 29.4761L59.4909 30.0195L60.0001 38.0033ZM59.9055 105.131V113.131H67.8942L67.9055 105.143L59.9055 105.131ZM58.4868 105.131H50.4868V113.131H58.4868V105.131ZM58.996 46.0836L60.5092 45.987L59.4909 30.0195L57.9777 30.116L58.996 46.0836ZM52.0001 37.992L51.9055 105.12L67.9055 105.143L68 38.0145L52.0001 37.992ZM59.9055 97.1315H58.4868V113.131H59.9055V97.1315ZM66.4868 105.131V38.0998H50.4868V105.131H66.4868Z" fill="white" mask="url(#path-37-inside-19_189_2156)"/>
<mask id="path-39-inside-20_189_2156" fill="white">
<path d="M59.8487 104.938L59.9432 106L0 105.788V104.803L59.8487 104.938Z"/>
</mask>
<path d="M59.8487 104.938L59.9432 106L0 105.788V104.803L59.8487 104.938Z" fill="white"/>
<path d="M59.8487 104.938L67.8171 104.229L67.1691 96.955L59.8667 96.9385L59.8487 104.938ZM59.9432 106L59.9149 114L68.6905 114.031L67.9117 105.29L59.9432 106ZM0 105.788H-8V113.759L-0.0283354 113.788L0 105.788ZM0 104.803L0.0180599 96.8034L-8 96.7853V104.803H0ZM51.8802 105.648L51.9748 106.71L67.9117 105.29L67.8171 104.229L51.8802 105.648ZM59.9716 98L0.0283354 97.7877L-0.0283354 113.788L59.9149 114L59.9716 98ZM8 105.788V104.803H-8V105.788H8ZM-0.0180599 112.803L59.8306 112.938L59.8667 96.9385L0.0180599 96.8034L-0.0180599 112.803Z" fill="white" mask="url(#path-39-inside-20_189_2156)"/>
<mask id="path-41-inside-21_189_2156" fill="white">
<path d="M1.57 105.614L0.0567627 105.73L0.132425 27.7739H1.55109L1.57 105.614Z"/>
</mask>
<path d="M1.57 105.614L0.0567627 105.73L0.132425 27.7739H1.55109L1.57 105.614Z" fill="white"/>
<path d="M1.57 105.614L2.18042 113.591L9.57181 113.025L9.57 105.612L1.57 105.614ZM0.0567627 105.73L-7.94323 105.722L-7.95162 114.366L0.667174 113.706L0.0567627 105.73ZM0.132425 27.7739V19.7739H-7.85981L-7.86757 27.7661L0.132425 27.7739ZM1.55109 27.7739L9.55109 27.7719L9.54914 19.7739H1.55109V27.7739ZM0.959592 97.6373L-0.553649 97.7531L0.667174 113.706L2.18042 113.591L0.959592 97.6373ZM8.05676 105.738L8.13242 27.7816L-7.86757 27.7661L-7.94323 105.722L8.05676 105.738ZM0.132425 35.7739H1.55109V19.7739H0.132425V35.7739ZM-6.44891 27.7758L-6.43 105.616L9.57 105.612L9.55109 27.7719L-6.44891 27.7758Z" fill="white" mask="url(#path-41-inside-21_189_2156)"/>
<mask id="path-43-inside-22_189_2156" fill="white">
<path d="M38.304 77.319C38.4174 77.4734 38.4742 77.705 38.4742 77.9752C38.4742 78.2068 38.4174 78.4385 38.304 78.6315C38.2283 78.7859 38.0959 78.8824 37.9446 78.8824C37.7932 78.8824 37.6608 78.8052 37.5662 78.6315C37.4717 78.4385 37.4338 78.2068 37.4338 77.9752C37.4338 77.705 37.4717 77.4927 37.5662 77.319C37.6608 77.1646 37.7932 77.0681 37.9446 77.0681C38.1148 77.0874 38.2283 77.1646 38.304 77.319ZM38.304 79.7509C38.4174 79.9053 38.4742 80.1369 38.4742 80.4071C38.4742 80.6387 38.4174 80.8704 38.304 81.0634C38.2283 81.2178 38.0959 81.3143 37.9446 81.3143C37.7932 81.3143 37.6608 81.2371 37.5662 81.0634C37.4717 80.8704 37.4338 80.6387 37.4338 80.4071C37.4338 80.1369 37.4717 79.9246 37.5662 79.7509C37.6608 79.5772 37.7932 79.5 37.9446 79.5C38.1148 79.5193 38.2283 79.5965 38.304 79.7509ZM40.9143 86.6413C40.5927 86.429 40.309 86.1009 40.1009 85.6763C39.6659 84.9042 39.4578 83.9006 39.4578 82.646H39.5713C39.5713 84.3445 40.2712 85.1937 41.6898 85.1937H42.2005C42.7869 85.1937 43.222 84.9621 43.5057 84.4989C43.7895 84.0357 43.9408 83.4181 43.9408 82.6653L43.9786 74.752H39.6659L39.2686 73.2272H44.2056V82.6653C44.2056 83.3023 44.1678 83.862 44.0921 84.3252C44.0164 84.8077 43.884 85.2516 43.7138 85.6956C43.5625 86.1009 43.3355 86.4097 43.0139 86.6413C42.7113 86.8729 42.3519 86.9887 41.9357 86.9887C41.5953 86.9694 41.2359 86.8536 40.9143 86.6413Z"/>
</mask>
<path d="M38.304 77.319C38.4174 77.4734 38.4742 77.705 38.4742 77.9752C38.4742 78.2068 38.4174 78.4385 38.304 78.6315C38.2283 78.7859 38.0959 78.8824 37.9446 78.8824C37.7932 78.8824 37.6608 78.8052 37.5662 78.6315C37.4717 78.4385 37.4338 78.2068 37.4338 77.9752C37.4338 77.705 37.4717 77.4927 37.5662 77.319C37.6608 77.1646 37.7932 77.0681 37.9446 77.0681C38.1148 77.0874 38.2283 77.1646 38.304 77.319ZM38.304 79.7509C38.4174 79.9053 38.4742 80.1369 38.4742 80.4071C38.4742 80.6387 38.4174 80.8704 38.304 81.0634C38.2283 81.2178 38.0959 81.3143 37.9446 81.3143C37.7932 81.3143 37.6608 81.2371 37.5662 81.0634C37.4717 80.8704 37.4338 80.6387 37.4338 80.4071C37.4338 80.1369 37.4717 79.9246 37.5662 79.7509C37.6608 79.5772 37.7932 79.5 37.9446 79.5C38.1148 79.5193 38.2283 79.5965 38.304 79.7509ZM40.9143 86.6413C40.5927 86.429 40.309 86.1009 40.1009 85.6763C39.6659 84.9042 39.4578 83.9006 39.4578 82.646H39.5713C39.5713 84.3445 40.2712 85.1937 41.6898 85.1937H42.2005C42.7869 85.1937 43.222 84.9621 43.5057 84.4989C43.7895 84.0357 43.9408 83.4181 43.9408 82.6653L43.9786 74.752H39.6659L39.2686 73.2272H44.2056V82.6653C44.2056 83.3023 44.1678 83.862 44.0921 84.3252C44.0164 84.8077 43.884 85.2516 43.7138 85.6956C43.5625 86.1009 43.3355 86.4097 43.0139 86.6413C42.7113 86.8729 42.3519 86.9887 41.9357 86.9887C41.5953 86.9694 41.2359 86.8536 40.9143 86.6413Z" fill="white"/>
<path d="M38.304 77.319L31.1201 80.8392L31.4346 81.4811L31.8579 82.057L38.304 77.319ZM38.304 78.6315L31.4078 74.5764L31.2538 74.8383L31.1201 75.1112L38.304 78.6315ZM37.5662 78.6315L30.3824 82.1517L30.458 82.306L30.5402 82.4569L37.5662 78.6315ZM37.5662 77.319L30.7443 73.1404L30.6377 73.3144L30.5402 73.4935L37.5662 77.319ZM37.9446 77.0681L38.8458 69.119L38.3966 69.0681H37.9446V77.0681ZM38.304 79.7509L31.1201 83.2711L31.4346 83.913L31.8579 84.4889L38.304 79.7509ZM38.304 81.0634L31.4078 77.0083L31.2538 77.2702L31.1201 77.5431L38.304 81.0634ZM37.5662 81.0634L30.3824 84.5836L30.458 84.7379L30.5402 84.8888L37.5662 81.0634ZM37.9446 79.5L38.8458 71.5509L38.3966 71.5H37.9446V79.5ZM40.1009 85.6763L47.2848 82.156L47.1835 81.9493L47.0705 81.7488L40.1009 85.6763ZM39.4578 82.646V74.646H31.4578V82.646H39.4578ZM39.5713 82.646H47.5713V74.646H39.5713V82.646ZM43.9408 82.6653L35.9409 82.6271L35.9408 82.6462V82.6653H43.9408ZM43.9786 74.752L51.9785 74.7902L52.0169 66.752H43.9786V74.752ZM39.6659 74.752L31.9243 76.7688L33.483 82.752H39.6659V74.752ZM39.2686 73.2272V65.2272H28.9175L31.527 75.244L39.2686 73.2272ZM44.2056 73.2272H52.2056V65.2272H44.2056V73.2272ZM44.0921 84.3252L36.1967 83.0356L36.1926 83.0607L36.1887 83.0859L44.0921 84.3252ZM43.7138 85.6956L36.2442 82.831L36.2315 82.8642L36.2191 82.8974L43.7138 85.6956ZM43.0139 86.6413L38.3384 80.1498L38.2442 80.2176L38.152 80.2882L43.0139 86.6413ZM41.9357 86.9887L41.483 94.9759L41.7092 94.9887H41.9357V86.9887ZM31.8579 82.057C31.1732 81.1255 30.844 80.2229 30.6809 79.5852C30.5146 78.9347 30.4742 78.3796 30.4742 77.9752H46.4742C46.4742 76.8238 46.2707 74.6499 44.75 72.581L31.8579 82.057ZM30.4742 77.9752C30.4742 76.957 30.7143 75.7559 31.4078 74.5764L45.2001 82.6865C46.1206 81.121 46.4742 79.4567 46.4742 77.9752H30.4742ZM31.1201 75.1112C32.0558 73.2018 34.3541 70.8824 37.9446 70.8824V86.8824C41.8376 86.8824 44.4008 84.37 45.4878 82.1517L31.1201 75.1112ZM37.9446 70.8824C39.2917 70.8824 40.7423 71.2459 42.0583 72.0914C43.3345 72.9113 44.128 73.9532 44.5923 74.806L30.5402 82.4569C31.8222 84.8117 34.4426 86.8824 37.9446 86.8824V70.8824ZM44.7501 75.1112C45.362 76.3599 45.4338 77.4412 45.4338 77.9752H29.4338C29.4338 78.9724 29.5813 80.517 30.3824 82.1517L44.7501 75.1112ZM45.4338 77.9752C45.4338 78.3613 45.3979 79.6649 44.5923 81.1445L30.5402 73.4935C29.5454 75.3206 29.4338 77.0488 29.4338 77.9752H45.4338ZM44.3882 81.4976C43.6248 82.744 41.5544 85.0681 37.9446 85.0681V69.0681C34.0321 69.0681 31.6969 71.5852 30.7443 73.1404L44.3882 81.4976ZM37.0433 85.0172C36.1228 84.9128 34.857 84.5884 33.5991 83.7156C32.3301 82.8351 31.5601 81.7372 31.1201 80.8392L45.4878 73.7988C44.9721 72.7464 44.1076 71.5327 42.7203 70.5702C41.3443 69.6153 39.9366 69.2427 38.8458 69.119L37.0433 85.0172ZM31.8579 84.4889C31.1732 83.5574 30.844 82.6548 30.6809 82.0171C30.5146 81.3666 30.4742 80.8115 30.4742 80.4071H46.4742C46.4742 79.2557 46.2707 77.0818 44.75 75.0129L31.8579 84.4889ZM30.4742 80.4071C30.4742 79.3889 30.7143 78.1878 31.4078 77.0083L45.2001 85.1184C46.1206 83.5529 46.4742 81.8886 46.4742 80.4071H30.4742ZM31.1201 77.5431C32.0559 75.6335 34.3543 73.3143 37.9446 73.3143V89.3143C41.8375 89.3143 44.4007 86.8021 45.4878 84.5836L31.1201 77.5431ZM37.9446 73.3143C39.2916 73.3143 40.7422 73.6778 42.0582 74.5233C43.3344 75.3432 44.128 76.3851 44.5923 77.2379L30.5402 84.8888C31.8223 87.2438 34.4428 89.3143 37.9446 89.3143V73.3143ZM44.7501 77.5431C45.362 78.7918 45.4338 79.8732 45.4338 80.4071H29.4338C29.4338 81.4043 29.5813 82.9489 30.3824 84.5836L44.7501 77.5431ZM45.4338 80.4071C45.4338 80.7932 45.3979 82.0968 44.5923 83.5764L30.5402 75.9254C29.5454 77.7525 29.4338 79.4807 29.4338 80.4071H45.4338ZM44.5923 83.5764C44.128 84.4292 43.3345 85.471 42.0583 86.2909C40.7423 87.1364 39.2917 87.5 37.9446 87.5V71.5C34.4426 71.5 31.8222 73.5707 30.5402 75.9254L44.5923 83.5764ZM37.0433 87.4491C36.1228 87.3447 34.857 87.0203 33.5991 86.1475C32.3301 85.267 31.5601 84.1691 31.1201 83.2711L45.4878 76.2307C44.9721 75.1783 44.1076 73.9646 42.7203 73.0021C41.3443 72.0472 39.9366 71.6746 38.8458 71.5509L37.0433 87.4491ZM45.3221 79.9652C46.3502 80.6439 46.9552 81.4834 47.2848 82.156L32.9171 89.1965C33.6628 90.7183 34.8352 92.214 36.5064 93.3174L45.3221 79.9652ZM47.0705 81.7488C47.316 82.1845 47.4105 82.5321 47.4438 82.6904C47.4754 82.8401 47.4578 82.8443 47.4578 82.646H31.4578C31.4578 84.6909 31.782 87.2093 33.1314 89.6038L47.0705 81.7488ZM39.4578 90.646H39.5713V74.646H39.4578V90.646ZM31.5713 82.646C31.5713 84.3908 31.8988 87.2027 33.9418 89.665C36.2248 92.4167 39.3288 93.1937 41.6898 93.1937V77.1937C42.6322 77.1937 44.6769 77.5461 46.2553 79.4486C47.5937 81.0617 47.5713 82.5997 47.5713 82.646H31.5713ZM41.6898 93.1937H42.2005V77.1937H41.6898V93.1937ZM42.2005 93.1937C45.3043 93.1937 48.4557 91.7337 50.3277 88.6775L36.6838 80.3203C37.209 79.4628 38.039 78.5803 39.2072 77.9584C40.3477 77.3512 41.4307 77.1937 42.2005 77.1937V93.1937ZM50.3277 88.6775C51.5967 86.6057 51.9408 84.4185 51.9408 82.6653H35.9408C35.9408 82.4176 35.9822 81.4657 36.6838 80.3203L50.3277 88.6775ZM51.9407 82.7036L51.9785 74.7902L35.9787 74.7138L35.9409 82.6271L51.9407 82.7036ZM43.9786 66.752H39.6659V82.752H43.9786V66.752ZM47.4075 72.7352L47.0103 71.2104L31.527 75.244L31.9243 76.7688L47.4075 72.7352ZM39.2686 81.2272H44.2056V65.2272H39.2686V81.2272ZM36.2056 73.2272V82.6653H52.2056V73.2272H36.2056ZM36.2056 82.6653C36.2056 82.8284 36.2007 82.9443 36.1957 83.0163C36.1906 83.0912 36.1873 83.0936 36.1967 83.0356L51.9875 85.6148C52.1532 84.6 52.2056 83.5854 52.2056 82.6653H36.2056ZM36.1887 83.0859C36.2039 82.9888 36.2228 82.91 36.2377 82.8571C36.2518 82.807 36.2585 82.7939 36.2442 82.831L51.1834 88.5601C51.4996 87.7354 51.8117 86.7367 51.9955 85.5645L36.1887 83.0859ZM36.2191 82.8974C36.3712 82.4899 36.6138 81.9934 36.9933 81.4798C37.3787 80.9582 37.8381 80.5101 38.3384 80.1498L47.6895 93.1328C49.4335 91.8766 50.5662 90.2141 51.2085 88.4937L36.2191 82.8974ZM38.152 80.2882C39.3753 79.3521 40.7656 78.9887 41.9357 78.9887V94.9887C43.9381 94.9887 46.0473 94.3937 47.8758 92.9944L38.152 80.2882ZM42.3885 79.0015C43.4984 79.0644 44.4976 79.4208 45.3221 79.9652L36.5064 93.3174C37.9741 94.2864 39.6921 94.8744 41.483 94.9759L42.3885 79.0015Z" fill="white" mask="url(#path-43-inside-22_189_2156)"/>
<mask id="path-45-inside-23_189_2156" fill="white">
<path d="M34.8235 70.776L34.3506 69.4829H44.565V70.776H34.8235Z"/>
</mask>
<path d="M34.8235 70.776L34.3506 69.4829H44.565V70.776H34.8235Z" fill="white"/>
<path d="M34.8235 70.776L27.3101 73.5236L29.2308 78.776H34.8235V70.776ZM34.3506 69.4829V61.4829H22.907L26.8372 72.2304L34.3506 69.4829ZM44.565 69.4829H52.565V61.4829H44.565V69.4829ZM44.565 70.776V78.776H52.565V70.776H44.565ZM42.3369 68.0285L41.864 66.7353L26.8372 72.2304L27.3101 73.5236L42.3369 68.0285ZM34.3506 77.4829H44.565V61.4829H34.3506V77.4829ZM36.565 69.4829V70.776H52.565V69.4829H36.565ZM44.565 62.776H34.8235V78.776H44.565V62.776Z" fill="white" mask="url(#path-45-inside-23_189_2156)"/>
<mask id="path-47-inside-24_189_2156" fill="white">
<path d="M47.1563 69.0197C46.9293 69.425 46.551 69.7145 46.0592 69.8689V69.6759C46.4754 69.5215 46.7969 69.2706 46.9861 68.8846C47.1941 68.5179 47.2887 68.0739 47.2887 67.5721C47.2887 66.9931 47.1185 66.5685 46.7591 66.2983C46.3997 66.028 45.9268 65.8929 45.3215 65.8929H39.7225L39.2496 64.5226H45.0189C45.8133 64.5226 46.4186 64.7735 46.8537 65.256C47.0807 65.5262 47.232 65.8157 47.3455 66.1439C47.459 66.472 47.4968 66.8773 47.4968 67.3598C47.4968 68.0546 47.3833 68.6144 47.1563 69.0197Z"/>
</mask>
<path d="M47.1563 69.0197C46.9293 69.425 46.551 69.7145 46.0592 69.8689V69.6759C46.4754 69.5215 46.7969 69.2706 46.9861 68.8846C47.1941 68.5179 47.2887 68.0739 47.2887 67.5721C47.2887 66.9931 47.1185 66.5685 46.7591 66.2983C46.3997 66.028 45.9268 65.8929 45.3215 65.8929H39.7225L39.2496 64.5226H45.0189C45.8133 64.5226 46.4186 64.7735 46.8537 65.256C47.0807 65.5262 47.232 65.8157 47.3455 66.1439C47.459 66.472 47.4968 66.8773 47.4968 67.3598C47.4968 68.0546 47.3833 68.6144 47.1563 69.0197Z" fill="white"/>
<path d="M46.0592 69.8689H38.0592V80.7656L48.4556 77.5016L46.0592 69.8689ZM46.0592 69.6759L43.2763 62.1756L38.0592 64.1113V69.6759H46.0592ZM46.9861 68.8846L40.0281 64.9367L39.9087 65.1471L39.8022 65.3643L46.9861 68.8846ZM39.7225 65.8929L32.1601 68.5026L34.0203 73.8929H39.7225V65.8929ZM39.2496 64.5226V56.5226H28.026L31.6872 67.1322L39.2496 64.5226ZM46.8537 65.256L52.9792 60.1104L52.8891 60.003L52.7952 59.8989L46.8537 65.256ZM40.1763 65.1107C41.0818 63.4938 42.4894 62.6047 43.6629 62.2362L48.4556 77.5016C50.6126 76.8243 52.7768 75.3562 54.1363 72.9286L40.1763 65.1107ZM54.0592 69.8689V69.6759H38.0592V69.8689H54.0592ZM48.8422 77.1762C50.7338 76.4744 52.8881 75.0207 54.1699 72.4048L39.8022 65.3643C40.2125 64.527 40.7939 63.7994 41.4808 63.2259C42.1447 62.6717 42.7937 62.3546 43.2763 62.1756L48.8422 77.1762ZM53.9441 72.8325C55.0159 70.9434 55.2887 69.0384 55.2887 67.5721H39.2887C39.2887 67.1094 39.3723 66.0923 40.0281 64.9367L53.9441 72.8325ZM55.2887 67.5721C55.2887 65.4005 54.5737 62.1648 51.5667 59.9039L41.9515 72.6926C40.9393 71.9316 40.2002 70.9305 39.762 69.8673C39.3537 68.8763 39.2887 68.0378 39.2887 67.5721H55.2887ZM51.5667 59.9039C49.4311 58.2983 47.0997 57.8929 45.3215 57.8929V73.8929C44.7539 73.8929 43.3683 73.7578 41.9515 72.6926L51.5667 59.9039ZM45.3215 57.8929H39.7225V73.8929H45.3215V57.8929ZM47.2849 63.2833L46.812 61.9129L31.6872 67.1322L32.1601 68.5026L47.2849 63.2833ZM39.2496 72.5226H45.0189V56.5226H39.2496V72.5226ZM45.0189 72.5226C44.5751 72.5226 43.8817 72.4516 43.0782 72.1274C42.2444 71.7911 41.4994 71.2645 40.9121 70.6131L52.7952 59.8989C50.5796 57.4417 47.6528 56.5226 45.0189 56.5226V72.5226ZM40.7281 70.4017C40.2201 69.7969 39.9324 69.1852 39.785 68.759L54.906 63.5287C54.5316 62.4463 53.9412 61.2556 52.9792 60.1104L40.7281 70.4017ZM39.785 68.759C39.6037 68.2349 39.5412 67.8233 39.5176 67.621C39.4938 67.4174 39.4968 67.3102 39.4968 67.3598H55.4968C55.4968 66.6133 55.4617 65.1355 54.906 63.5287L39.785 68.759ZM39.4968 67.3598C39.4968 67.287 39.5014 67.0497 39.5739 66.6953C39.6457 66.3442 39.8059 65.7722 40.1763 65.1107L54.1363 72.9286C55.2906 70.8674 55.4968 68.7734 55.4968 67.3598H39.4968Z" fill="white" mask="url(#path-47-inside-24_189_2156)"/>
<mask id="path-49-inside-25_189_2156" fill="white">
<path d="M34.483 62.1679L34.0101 60.7589H43.9408V58.9254H44.2056V62.1486H34.483V62.1679Z"/>
</mask>
<path d="M34.483 62.1679L34.0101 60.7589H43.9408V58.9254H44.2056V62.1486H34.483V62.1679Z" fill="white"/>
<path d="M34.483 62.1679L26.8988 64.7134L42.483 62.1679H34.483ZM34.0101 60.7589V52.7589H22.8865L26.4259 63.3044L34.0101 60.7589ZM43.9408 60.7589V68.7589H51.9408V60.7589H43.9408ZM43.9408 58.9254V50.9254H35.9408V58.9254H43.9408ZM44.2056 58.9254H52.2056V50.9254H44.2056V58.9254ZM44.2056 62.1486V70.1486H52.2056V62.1486H44.2056ZM34.483 62.1486V54.1486H26.483V62.1486H34.483ZM42.0672 59.6224L41.5944 58.2134L26.4259 63.3044L26.8988 64.7134L42.0672 59.6224ZM34.0101 68.7589H43.9408V52.7589H34.0101V68.7589ZM51.9408 60.7589V58.9254H35.9408V60.7589H51.9408ZM43.9408 66.9254H44.2056V50.9254H43.9408V66.9254ZM36.2056 58.9254V62.1486H52.2056V58.9254H36.2056ZM44.2056 54.1486H34.483V70.1486H44.2056V54.1486ZM26.483 62.1486V62.1679H42.483V62.1486H26.483Z" fill="white" mask="url(#path-49-inside-25_189_2156)"/>
<mask id="path-51-inside-26_189_2156" fill="white">
<path d="M38.304 51.6489C38.4174 51.8033 38.4742 52.0157 38.4742 52.2666C38.4742 52.4982 38.4174 52.6912 38.304 52.8842C38.2283 53.0386 38.0959 53.1158 37.9446 53.1158C37.7932 53.1158 37.6608 53.0386 37.5662 52.8842C37.4717 52.6912 37.4338 52.4982 37.4338 52.2666C37.4338 52.0157 37.4717 51.8033 37.5662 51.6489C37.6608 51.4945 37.7932 51.4173 37.9446 51.4173C38.1148 51.4173 38.2283 51.4945 38.304 51.6489ZM38.304 53.9264C38.4174 54.0808 38.4742 54.2931 38.4742 54.5441C38.4742 54.7757 38.4174 54.9687 38.304 55.1617C38.2283 55.3161 38.0959 55.3933 37.9446 55.3933C37.7932 55.3933 37.6608 55.3161 37.5662 55.1617C37.4717 54.9687 37.4338 54.7757 37.4338 54.5441C37.4338 54.2931 37.4717 54.0808 37.5662 53.9264C37.6608 53.772 37.7932 53.6948 37.9446 53.6948C38.1148 53.6948 38.2283 53.772 38.304 53.9264ZM43.9597 46.9009H44.2245V58.9832H43.9597V54.9687C43.9029 55.6442 43.6949 56.1653 43.3355 56.5706C43.1085 56.8988 42.8626 57.1304 42.6356 57.2655C42.3897 57.4006 42.0871 57.4778 41.7087 57.4778C41.4628 57.4778 41.1791 57.4006 40.8954 57.2269C40.6116 57.0725 40.3657 56.8409 40.1577 56.5706C39.5713 55.8951 39.2876 54.8529 39.2876 53.4053C39.2876 51.9771 39.5713 50.9348 40.1577 50.24C40.3657 49.9698 40.6116 49.7575 40.8954 49.5838C41.198 49.4293 41.4818 49.3328 41.7277 49.3328H43.9408V46.9009H43.9597ZM41.5196 51.0892C40.8765 51.0892 40.3847 51.2629 40.0442 51.6103C39.7037 51.9577 39.5335 52.5561 39.5335 53.386C39.5335 54.2159 39.7037 54.795 40.0442 55.1617C40.3847 55.5284 40.8765 55.7214 41.5196 55.7214H42.1438C42.768 55.7214 43.222 55.5284 43.5246 55.1231C43.8084 54.7371 43.9597 54.1387 43.9597 53.386V51.0699H41.5196V51.0892Z"/>
</mask>
<path d="M38.304 51.6489C38.4174 51.8033 38.4742 52.0157 38.4742 52.2666C38.4742 52.4982 38.4174 52.6912 38.304 52.8842C38.2283 53.0386 38.0959 53.1158 37.9446 53.1158C37.7932 53.1158 37.6608 53.0386 37.5662 52.8842C37.4717 52.6912 37.4338 52.4982 37.4338 52.2666C37.4338 52.0157 37.4717 51.8033 37.5662 51.6489C37.6608 51.4945 37.7932 51.4173 37.9446 51.4173C38.1148 51.4173 38.2283 51.4945 38.304 51.6489ZM38.304 53.9264C38.4174 54.0808 38.4742 54.2931 38.4742 54.5441C38.4742 54.7757 38.4174 54.9687 38.304 55.1617C38.2283 55.3161 38.0959 55.3933 37.9446 55.3933C37.7932 55.3933 37.6608 55.3161 37.5662 55.1617C37.4717 54.9687 37.4338 54.7757 37.4338 54.5441C37.4338 54.2931 37.4717 54.0808 37.5662 53.9264C37.6608 53.772 37.7932 53.6948 37.9446 53.6948C38.1148 53.6948 38.2283 53.772 38.304 53.9264ZM43.9597 46.9009H44.2245V58.9832H43.9597V54.9687C43.9029 55.6442 43.6949 56.1653 43.3355 56.5706C43.1085 56.8988 42.8626 57.1304 42.6356 57.2655C42.3897 57.4006 42.0871 57.4778 41.7087 57.4778C41.4628 57.4778 41.1791 57.4006 40.8954 57.2269C40.6116 57.0725 40.3657 56.8409 40.1577 56.5706C39.5713 55.8951 39.2876 54.8529 39.2876 53.4053C39.2876 51.9771 39.5713 50.9348 40.1577 50.24C40.3657 49.9698 40.6116 49.7575 40.8954 49.5838C41.198 49.4293 41.4818 49.3328 41.7277 49.3328H43.9408V46.9009H43.9597ZM41.5196 51.0892C40.8765 51.0892 40.3847 51.2629 40.0442 51.6103C39.7037 51.9577 39.5335 52.5561 39.5335 53.386C39.5335 54.2159 39.7037 54.795 40.0442 55.1617C40.3847 55.5284 40.8765 55.7214 41.5196 55.7214H42.1438C42.768 55.7214 43.222 55.5284 43.5246 55.1231C43.8084 54.7371 43.9597 54.1387 43.9597 53.386V51.0699H41.5196V51.0892Z" fill="white"/>
<path d="M38.304 51.6489L31.1201 55.1692L31.4346 55.811L31.8579 56.3869L38.304 51.6489ZM38.304 52.8842L31.4078 48.8291L31.2538 49.0911L31.1201 49.364L38.304 52.8842ZM37.5662 52.8842L30.3824 56.4044L30.5479 56.7421L30.7443 57.0628L37.5662 52.8842ZM37.9446 51.4173V59.4173V51.4173ZM38.304 53.9264L31.1201 57.4467L31.4346 58.0885L31.8579 58.6644L38.304 53.9264ZM38.304 55.1617L31.4078 51.1066L31.2538 51.3686L31.1201 51.6414L38.304 55.1617ZM37.5662 55.1617L30.3824 58.6819L30.5479 59.0196L30.7443 59.3403L37.5662 55.1617ZM44.2245 46.9009H52.2245V38.9009H44.2245V46.9009ZM44.2245 58.9832V66.9832H52.2245V58.9832H44.2245ZM43.9597 58.9832H35.9597V66.9832H43.9597V58.9832ZM43.9597 54.9687H51.9597L35.9878 54.299L43.9597 54.9687ZM43.3355 56.5706L37.3497 51.2631L37.0303 51.6233L36.7564 52.0193L43.3355 56.5706ZM42.6356 57.2655L46.4879 64.2769L46.6088 64.2105L46.7274 64.1399L42.6356 57.2655ZM40.8954 57.2269L45.0725 50.404L44.8985 50.2975L44.7194 50.2L40.8954 57.2269ZM40.1577 56.5706L46.4962 51.6898L46.353 51.5038L46.1991 51.3265L40.1577 56.5706ZM40.1577 50.24L46.2715 55.3996L46.387 55.2627L46.4962 55.1208L40.1577 50.24ZM40.8954 49.5838L37.2597 42.4576L36.9831 42.5987L36.7183 42.7609L40.8954 49.5838ZM43.9408 49.3328V57.3328H51.9408V49.3328H43.9408ZM43.9408 46.9009V38.9009H35.9408V46.9009H43.9408ZM41.5196 51.0892V59.0892H49.5196V51.0892H41.5196ZM43.5246 55.1231L49.9348 59.9095L49.9528 59.8854L49.9707 59.8611L43.5246 55.1231ZM43.9597 51.0699H51.9597V43.0699H43.9597V51.0699ZM41.5196 51.0699V43.0699H33.5196V51.0699H41.5196ZM31.8579 56.3869C30.6552 54.7506 30.4742 53.117 30.4742 52.2666H46.4742C46.4742 50.9143 46.1797 48.856 44.75 46.9109L31.8579 56.3869ZM30.4742 52.2666C30.4742 51.7095 30.5451 51.0858 30.7279 50.4328C30.9096 49.7841 31.1625 49.2464 31.4078 48.8291L45.2001 56.9393C45.9953 55.5869 46.4742 54.003 46.4742 52.2666H30.4742ZM31.1201 49.364C31.6754 48.2307 32.586 47.107 33.8984 46.2829C35.2074 45.4609 36.6325 45.1158 37.9446 45.1158V61.1158C41.1883 61.1158 44.0859 59.2653 45.4878 56.4044L31.1201 49.364ZM37.9446 45.1158C39.2822 45.1158 40.6499 45.4722 41.8736 46.2121C43.0687 46.9348 43.8756 47.8686 44.3882 48.7056L30.7443 57.0628C32.0745 59.2345 34.615 61.1158 37.9446 61.1158V45.1158ZM44.7501 49.364C44.9914 49.8564 45.177 50.3894 45.2938 50.9456C45.4074 51.4865 45.4338 51.9443 45.4338 52.2666H29.4338C29.4338 53.4804 29.6551 54.9202 30.3824 56.4044L44.7501 49.364ZM45.4338 52.2666C45.4338 52.5188 45.417 52.9657 45.3014 53.5291C45.186 54.0914 44.9405 54.9259 44.3882 55.8276L30.7443 47.4703C29.5141 49.4786 29.4338 51.4464 29.4338 52.2666H45.4338ZM44.3882 55.8276C43.8756 56.6645 43.0687 57.5984 41.8736 58.321C40.6499 59.0609 39.2822 59.4173 37.9446 59.4173V43.4173C34.615 43.4173 32.0745 45.2986 30.7443 47.4703L44.3882 55.8276ZM37.9446 59.4173C36.7742 59.4173 35.256 59.1338 33.7855 58.1734C32.3517 57.2371 31.5454 56.0371 31.1201 55.1692L45.4878 48.1287C44.9869 47.1064 44.086 45.7906 42.534 44.777C40.9452 43.7395 39.2851 43.4173 37.9446 43.4173V59.4173ZM31.8579 58.6644C30.6552 57.0281 30.4742 55.3944 30.4742 54.5441H46.4742C46.4742 53.1919 46.1797 51.1336 44.75 49.1884L31.8579 58.6644ZM30.4742 54.5441C30.4742 53.987 30.5451 53.3633 30.7279 52.7102C30.9096 52.0615 31.1625 51.5239 31.4078 51.1066L45.2001 59.2168C45.9953 57.8645 46.4742 56.2805 46.4742 54.5441H30.4742ZM31.1201 51.6414C31.6754 50.5082 32.586 49.3844 33.8984 48.5603C35.2074 47.7383 36.6325 47.3933 37.9446 47.3933V63.3933C41.1883 63.3933 44.0859 61.5428 45.4878 58.6819L31.1201 51.6414ZM37.9446 47.3933C39.2822 47.3933 40.6499 47.7497 41.8736 48.4896C43.0687 49.2123 43.8756 50.1461 44.3882 50.9831L30.7443 59.3403C32.0745 61.512 34.615 63.3933 37.9446 63.3933V47.3933ZM44.7501 51.6414C44.9914 52.1338 45.177 52.6669 45.2938 53.2231C45.4074 53.764 45.4338 54.2218 45.4338 54.5441H29.4338C29.4338 55.7579 29.6551 57.1977 30.3824 58.6819L44.7501 51.6414ZM45.4338 54.5441C45.4338 54.7963 45.417 55.2431 45.3014 55.8066C45.1861 56.3689 44.9405 57.2033 44.3882 58.105L30.7443 49.7478C29.5141 51.7561 29.4338 53.7239 29.4338 54.5441H45.4338ZM44.3882 58.105C43.8755 58.942 43.0686 59.8759 41.8735 60.5986C40.6498 61.3385 39.282 61.6948 37.9446 61.6948V45.6948C34.6152 45.6948 32.0746 47.5759 30.7443 49.7478L44.3882 58.105ZM37.9446 61.6948C36.7743 61.6948 35.2562 61.4113 33.7856 60.451C32.3517 59.5147 31.5454 58.3146 31.1201 57.4467L45.4878 50.4062C44.9869 49.3839 44.086 48.068 42.5339 47.0544C40.945 46.0169 39.285 45.6948 37.9446 45.6948V61.6948ZM43.9597 54.9009H44.2245V38.9009H43.9597V54.9009ZM36.2245 46.9009V58.9832H52.2245V46.9009H36.2245ZM44.2245 50.9832H43.9597V66.9832H44.2245V50.9832ZM51.9597 58.9832V54.9687H35.9597V58.9832H51.9597ZM35.9878 54.299C36.0132 53.9968 36.09 53.5199 36.3129 52.9512C36.5432 52.3637 36.8893 51.7823 37.3497 51.2631L49.3213 61.8782C51.0461 59.933 51.7609 57.6701 51.9316 55.6383L35.9878 54.299ZM36.7564 52.0193C37.0262 51.6291 37.5735 50.9686 38.5438 50.3911L46.7274 64.1399C48.1517 63.2921 49.1907 62.1684 49.9146 61.122L36.7564 52.0193ZM38.7833 50.2541C39.9029 49.6389 40.9685 49.4778 41.7087 49.4778V65.4778C43.2056 65.4778 44.8765 65.1622 46.4879 64.2769L38.7833 50.2541ZM41.7087 49.4778C43.1086 49.4778 44.2537 49.9027 45.0725 50.404L36.7183 64.0498C38.1046 64.8985 39.8171 65.4778 41.7087 65.4778V49.4778ZM44.7194 50.2C45.6626 50.7133 46.2216 51.3331 46.4962 51.6898L33.8191 61.4515C34.5099 62.3486 35.5607 63.4316 37.0714 64.2537L44.7194 50.2ZM46.1991 51.3265C46.8439 52.0693 47.1135 52.7811 47.2179 53.1618C47.3145 53.5141 47.2876 53.6411 47.2876 53.4053H31.2876C31.2876 55.636 31.678 59.0059 34.1162 61.8148L46.1991 51.3265ZM47.2876 53.4053C47.2876 53.1901 47.3124 53.3188 47.2179 53.6633C47.1156 54.0364 46.8606 54.7015 46.2715 55.3996L34.0439 45.0804C31.7021 47.8552 31.2876 51.1346 31.2876 53.4053H47.2876ZM46.4962 55.1208C46.0526 55.6969 45.5401 56.1204 45.0725 56.4066L36.7183 42.7609C35.6832 43.3945 34.6789 44.2426 33.8191 45.3591L46.4962 55.1208ZM44.531 56.7099C44.401 56.7763 44.1183 56.9119 43.7106 57.0389C43.3145 57.1621 42.6243 57.3328 41.7277 57.3328V41.3328C39.5945 41.3328 37.9564 42.1022 37.2597 42.4576L44.531 56.7099ZM41.7277 57.3328H43.9408V41.3328H41.7277V57.3328ZM51.9408 49.3328V46.9009H35.9408V49.3328H51.9408ZM43.9408 54.9009H43.9597V38.9009H43.9408V54.9009ZM41.5196 43.0892C39.4466 43.0892 36.6143 43.6806 34.3306 46.0108L45.7578 57.2099C44.1551 58.8452 42.3063 59.0892 41.5196 59.0892V43.0892ZM34.3306 46.0108C31.7685 48.6251 31.5335 51.8732 31.5335 53.386H47.5335C47.5335 53.4761 47.5289 53.9028 47.351 54.523C47.1698 55.1549 46.7429 56.2047 45.7578 57.2099L34.3306 46.0108ZM31.5335 53.386C31.5335 55.0497 31.831 58.0733 34.1815 60.6049L45.9069 49.7184C47.5764 51.5166 47.5335 53.3821 47.5335 53.386H31.5335ZM34.1815 60.6049C36.3791 62.9718 39.2123 63.7214 41.5196 63.7214V47.7214C42.5406 47.7214 44.3903 48.085 45.9069 49.7184L34.1815 60.6049ZM41.5196 63.7214H42.1438V47.7214H41.5196V63.7214ZM42.1438 63.7214C44.5667 63.7214 47.7352 62.8553 49.9348 59.9095L37.1145 50.3367C37.7929 49.428 38.7174 48.6895 39.7866 48.2283C40.7897 47.7957 41.6511 47.7214 42.1438 47.7214V63.7214ZM49.9707 59.8611C51.6841 57.5299 51.9597 54.9617 51.9597 53.386H35.9597C35.9597 53.2479 35.9714 52.9137 36.0894 52.4439C36.2042 51.9867 36.4663 51.2181 37.0786 50.3851L49.9707 59.8611ZM51.9597 53.386V51.0699H35.9597V53.386H51.9597ZM43.9597 43.0699H41.5196V59.0699H43.9597V43.0699ZM33.5196 51.0699V51.0892H49.5196V51.0699H33.5196Z" fill="white" mask="url(#path-51-inside-26_189_2156)"/>
<mask id="path-53-inside-27_189_2156" fill="white">
<path d="M43.9596 45.4341H41.8978C41.3304 45.4341 40.8575 45.2411 40.4602 44.8358C40.063 44.4497 39.7793 43.9286 39.5901 43.311C39.401 42.6934 39.3064 42.0178 39.3064 41.323C39.3064 40.6475 39.401 40.0299 39.5712 39.4315C39.7415 38.8332 39.9874 38.3507 40.3278 37.9647C40.6494 37.5787 41.0655 37.3857 41.5384 37.3664V39.0648C40.952 39.1034 40.517 39.2964 40.1954 39.6631C39.8928 40.0299 39.7415 40.5896 39.7415 41.3809C39.7415 42.2109 39.9117 42.8285 40.2522 43.1759C40.5927 43.5426 41.0845 43.7163 41.7276 43.7163H43.9974V36.8645H44.2623V47.4221H43.9974V45.4341H43.9596Z"/>
</mask>
<path d="M43.9596 45.4341H41.8978C41.3304 45.4341 40.8575 45.2411 40.4602 44.8358C40.063 44.4497 39.7793 43.9286 39.5901 43.311C39.401 42.6934 39.3064 42.0178 39.3064 41.323C39.3064 40.6475 39.401 40.0299 39.5712 39.4315C39.7415 38.8332 39.9874 38.3507 40.3278 37.9647C40.6494 37.5787 41.0655 37.3857 41.5384 37.3664V39.0648C40.952 39.1034 40.517 39.2964 40.1954 39.6631C39.8928 40.0299 39.7415 40.5896 39.7415 41.3809C39.7415 42.2109 39.9117 42.8285 40.2522 43.1759C40.5927 43.5426 41.0845 43.7163 41.7276 43.7163H43.9974V36.8645H44.2623V47.4221H43.9974V45.4341H43.9596Z" fill="white"/>
<path d="M40.4602 44.8358L46.1738 39.2362L46.1055 39.1665L46.0356 39.0985L40.4602 44.8358ZM40.3278 37.9647L46.3275 43.2566L46.4022 43.1719L46.4745 43.0851L40.3278 37.9647ZM41.5384 37.3664H49.5384V29.0332L41.2122 29.373L41.5384 37.3664ZM41.5384 39.0648L42.0639 47.0475L49.5384 46.5555V39.0648H41.5384ZM40.1954 39.6631L34.1804 34.3887L34.1015 34.4787L34.0253 34.571L40.1954 39.6631ZM40.2522 43.1759L46.1149 37.7326L46.0414 37.6535L45.9658 37.5764L40.2522 43.1759ZM43.9974 43.7163V51.7163H51.9974V43.7163H43.9974ZM43.9974 36.8645V28.8645H35.9974V36.8645H43.9974ZM44.2623 36.8645H52.2623V28.8645H44.2623V36.8645ZM44.2623 47.4221V55.4221H52.2623V47.4221H44.2623ZM43.9974 47.4221H35.9974V55.4221H43.9974V47.4221ZM43.9974 45.4341H51.9974V37.4341H43.9974V45.4341ZM43.9596 37.4341H41.8978V53.4341H43.9596V37.4341ZM41.8978 37.4341C42.5408 37.4341 43.3366 37.5479 44.1766 37.8959C45.0211 38.2457 45.6874 38.7399 46.1738 39.2362L34.7466 50.4353C36.6892 52.4174 39.2394 53.4341 41.8978 53.4341V37.4341ZM46.0356 39.0985C46.8615 39.9012 47.1544 40.6907 47.2394 40.9683L31.9408 45.6537C32.4042 47.1666 33.2645 48.9983 34.8849 50.573L46.0356 39.0985ZM47.2394 40.9683C47.2741 41.0816 47.2902 41.167 47.2978 41.221C47.3056 41.2753 47.3064 41.3091 47.3064 41.323H31.3064C31.3064 42.7288 31.4961 44.2014 31.9408 45.6537L47.2394 40.9683ZM47.3064 41.323C47.3064 41.3625 47.3033 41.4183 47.2941 41.4826C47.285 41.5465 47.2732 41.595 47.2658 41.6209L31.8766 37.2422C31.5147 38.5142 31.3064 39.8681 31.3064 41.323H47.3064ZM47.2658 41.6209C47.1885 41.8928 46.9471 42.554 46.3275 43.2566L34.3282 32.6728C33.0276 34.1473 32.2945 35.7737 31.8766 37.2422L47.2658 41.6209ZM46.4745 43.0851C45.9531 43.711 45.2511 44.2963 44.3759 44.722C43.5056 45.1453 42.6346 45.3283 41.8647 45.3597L41.2122 29.373C38.548 29.4817 35.9925 30.6699 34.1812 32.8443L46.4745 43.0851ZM33.5384 37.3664V39.0648H49.5384V37.3664H33.5384ZM41.0129 31.0821C38.7877 31.2286 36.1872 32.1001 34.1804 34.3887L46.2104 44.9376C45.6169 45.6144 44.8669 46.173 44.0205 46.5498C43.2112 46.91 42.5079 47.0183 42.0639 47.0475L41.0129 31.0821ZM34.0253 34.571C31.9985 37.0268 31.7415 39.8104 31.7415 41.3809H47.7415C47.7415 41.4629 47.7371 41.8511 47.5865 42.4176C47.429 43.0104 47.088 43.8799 46.3655 44.7553L34.0253 34.571ZM31.7415 41.3809C31.7415 42.8319 31.9517 46.1359 34.5386 48.7754L45.9658 37.5764C46.9875 38.6189 47.4022 39.6975 47.5683 40.2863C47.7368 40.8832 47.7415 41.2908 47.7415 41.3809H31.7415ZM34.3895 48.6191C36.7063 51.1144 39.6455 51.7163 41.7276 51.7163V35.7163C42.5234 35.7163 44.479 35.9708 46.1149 37.7326L34.3895 48.6191ZM41.7276 51.7163H43.9974V35.7163H41.7276V51.7163ZM51.9974 43.7163V36.8645H35.9974V43.7163H51.9974ZM43.9974 44.8645H44.2623V28.8645H43.9974V44.8645ZM36.2623 36.8645V47.4221H52.2623V36.8645H36.2623ZM44.2623 39.4221H43.9974V55.4221H44.2623V39.4221ZM51.9974 47.4221V45.4341H35.9974V47.4221H51.9974ZM43.9974 37.4341H43.9596V53.4341H43.9974V37.4341Z" fill="white" mask="url(#path-53-inside-27_189_2156)"/>
</g>
<defs>
<clipPath id="clip0_189_2156">
<rect width="60" height="106" fill="white"/>
</clipPath>
</defs>
</svg>
