<svg width="24" height="24" viewBox="0 0 24 24" fill="none" xmlns="http://www.w3.org/2000/svg">
<path d="M16 18.43H12L7.54999 21.39C6.88999 21.83 6 21.36 6 20.56V18.43C3 18.43 1 16.43 1 13.43V7.42993C1 4.42993 3 2.42993 6 2.42993H16C19 2.42993 21 4.42993 21 7.42993V13.43C21 16.43 19 18.43 16 18.43Z" stroke="#121212" stroke-width="1.5" stroke-miterlimit="10" stroke-linecap="round" stroke-linejoin="round"/>
<path d="M10.9998 11.36V11.15C10.9998 10.47 11.4198 10.11 11.8398 9.82001C12.2498 9.54001 12.6598 9.18002 12.6598 8.52002C12.6598 7.60002 11.9198 6.85999 10.9998 6.85999C10.0798 6.85999 9.33984 7.60002 9.33984 8.52002" stroke="#121212" stroke-width="1.5" stroke-linecap="round" stroke-linejoin="round"/>
<path d="M10.9955 13.75H11.0045" stroke="#121212" stroke-width="1.5" stroke-linecap="round" stroke-linejoin="round"/>
</svg>
