<svg width="27" height="27" viewBox="0 0 27 27" fill="none" xmlns="http://www.w3.org/2000/svg">
<path d="M8.4375 4.5H18.5625C19.26 4.5 19.8787 4.5225 20.43 4.60125C23.3887 4.9275 24.1875 6.3225 24.1875 10.125V16.875C24.1875 20.6775 23.3887 22.0725 20.43 22.3987C19.8787 22.4775 19.26 22.5 18.5625 22.5H8.4375C7.74 22.5 7.12125 22.4775 6.57 22.3987C3.61125 22.0725 2.8125 20.6775 2.8125 16.875V10.125C2.8125 6.3225 3.61125 4.9275 6.57 4.60125C7.12125 4.5225 7.74 4.5 8.4375 4.5Z" stroke="#797979" stroke-width="1.5" stroke-linecap="round" stroke-linejoin="round"/>
<path d="M15.1875 11.25H19.125" stroke="#797979" stroke-width="1.5" stroke-linecap="round" stroke-linejoin="round"/>
<path d="M7.875 17.4375H7.8975H19.125" stroke="#797979" stroke-width="1.5" stroke-linecap="round" stroke-linejoin="round"/>
<path d="M11.3566 11.25H11.3667" stroke="#797979" stroke-width="2" stroke-linecap="round" stroke-linejoin="round"/>
<path d="M7.98161 11.25H7.99172" stroke="#797979" stroke-width="2" stroke-linecap="round" stroke-linejoin="round"/>
</svg>
