<svg width="18" height="19" viewBox="0 0 18 19" fill="none" xmlns="http://www.w3.org/2000/svg">
<path d="M9 9.49999C11.0711 9.49999 12.75 7.72779 12.75 5.54166C12.75 3.35553 11.0711 1.58333 9 1.58333C6.92893 1.58333 5.25 3.35553 5.25 5.54166C5.25 7.72779 6.92893 9.49999 9 9.49999Z" stroke="#848484" stroke-width="1.5" stroke-linecap="round" stroke-linejoin="round"/>
<path d="M14.4073 12.4608L11.7523 15.2634C11.6473 15.3742 11.5498 15.58 11.5273 15.7304L11.3848 16.7992C11.3323 17.1871 11.5873 17.4563 11.9548 17.4008L12.9673 17.2504C13.1098 17.2267 13.3123 17.1238 13.4098 17.0129L16.0648 14.2104C16.5223 13.7275 16.7398 13.1654 16.0648 12.4529C15.3973 11.7483 14.8648 11.9779 14.4073 12.4608Z" stroke="#848484" stroke-width="1.5" stroke-miterlimit="10" stroke-linecap="round" stroke-linejoin="round"/>
<path d="M14.0249 12.8646C14.2499 13.7196 14.8799 14.3846 15.6899 14.6221" stroke="#848484" stroke-width="1.5" stroke-miterlimit="10" stroke-linecap="round" stroke-linejoin="round"/>
<path d="M2.55762 17.4167C2.55762 14.3529 5.44514 11.875 9.00014 11.875C9.78014 11.875 10.5301 11.9937 11.2276 12.2154" stroke="#848484" stroke-width="1.5" stroke-linecap="round" stroke-linejoin="round"/>
</svg>
